<svg width="115" height="30" viewBox="0 0 115 30" fill="none" xmlns="http://www.w3.org/2000/svg">
<path d="M39.4441 22.5873C40.592 23.1532 41.9663 23.4361 43.5669 23.4361C45.2484 23.4361 46.6954 23.1208 47.9081 22.4903C49.1207 21.8597 50.0746 21.019 50.7698 19.968C51.465 18.9171 51.8935 17.7611 52.0552 16.5H48.5871C48.3931 17.6803 47.8353 18.6018 46.9137 19.2647C46.0083 19.9115 44.8927 20.2348 43.5669 20.2348C42.6615 20.2348 41.8612 20.0812 41.166 19.774C40.4869 19.4668 39.9129 19.0384 39.4441 18.4887C38.9752 17.9228 38.6195 17.268 38.377 16.5242C38.1506 15.7805 38.0374 14.9721 38.0374 14.099C38.0374 13.1936 38.1506 12.369 38.377 11.6253C38.6195 10.8816 38.9671 10.2349 39.4198 9.68515C39.8725 9.13543 40.4384 8.71506 41.1175 8.42404C41.7965 8.11684 42.5726 7.96324 43.4457 7.96324C44.3026 7.96324 45.0706 8.10876 45.7496 8.39978C46.4287 8.67464 46.9865 9.09501 47.423 9.66089C47.8757 10.2106 48.1667 10.8897 48.2961 11.6981H51.7641C51.6186 10.3076 51.1902 9.09501 50.4788 8.06025C49.7674 7.00933 48.8135 6.20092 47.617 5.63504C46.4368 5.05299 45.0463 4.76196 43.4457 4.76196C41.9097 4.76196 40.5758 5.02874 39.4441 5.56228C38.3285 6.07966 37.4069 6.77489 36.6793 7.64797C35.9518 8.52104 35.4101 9.49113 35.0544 10.5582C34.7149 11.6253 34.5451 12.7086 34.5451 13.808V14.3416C34.5451 15.3278 34.7149 16.3545 35.0544 17.4216C35.394 18.4887 35.9194 19.4749 36.6308 20.3803C37.3584 21.2857 38.2961 22.0214 39.4441 22.5873Z" fill="#302C2A"/>
<path fill-rule="evenodd" clip-rule="evenodd" d="M61.0485 21.3747C61.2152 21.0921 61.3526 20.7803 61.4608 20.4392V22.9753H64.1286V14.8023C64.1286 13.5736 63.8941 12.5792 63.4253 11.8193C62.9725 11.0594 62.2935 10.5016 61.3881 10.1459C60.4988 9.79024 59.3751 9.61239 58.017 9.61239C57.5805 9.61239 57.1116 9.62047 56.6104 9.63664C56.1254 9.63664 55.6484 9.65281 55.1795 9.68515C54.7107 9.71748 54.2903 9.74982 53.9184 9.78215V12.6439C54.3711 12.6116 54.8804 12.5873 55.4463 12.5711C56.0284 12.5388 56.6023 12.5146 57.1682 12.4984C57.7341 12.4822 58.2191 12.4741 58.6233 12.4741C59.3994 12.4741 59.9734 12.6601 60.3452 13.0319C60.7171 13.4038 60.903 13.9697 60.903 14.7296V14.8508H58.211C57.0469 14.8508 56.0284 15.0044 55.1553 15.3116C54.2984 15.6188 53.6274 16.0796 53.1423 16.694C52.6735 17.3084 52.439 18.1006 52.439 19.0707C52.439 19.96 52.6331 20.7199 53.0211 21.3504C53.4253 21.981 53.9831 22.466 54.6945 22.8055C55.4221 23.1451 56.2628 23.3148 57.2167 23.3148C58.1383 23.3148 58.9144 23.1532 59.5449 22.8298C60.1916 22.4903 60.6928 22.0052 61.0485 21.3747ZM60.4422 19.7983C60.7171 19.3779 60.8707 18.812 60.903 18.1006V16.8638H58.1625C57.3865 16.8638 56.7883 17.0578 56.3679 17.4458C55.9637 17.8177 55.7616 18.3027 55.7616 18.901C55.7616 19.4992 55.9637 19.9842 56.3679 20.3561C56.7883 20.7279 57.3865 20.9139 58.1625 20.9139C58.6314 20.9139 59.0599 20.833 59.4479 20.6714C59.8521 20.4935 60.1836 20.2025 60.4422 19.7983Z" fill="#302C2A"/>
<path d="M72.3716 23.4361C71.2237 23.4361 70.2294 23.2421 69.3886 22.8541C68.564 22.466 67.8688 21.9486 67.3029 21.3019C66.7532 20.6552 66.3409 19.9276 66.0661 19.1192C65.7912 18.3108 65.6538 17.4862 65.6538 16.6455V16.1847C65.6538 15.2955 65.7912 14.4466 66.0661 13.6382C66.3571 12.8137 66.7856 12.0861 67.3514 11.4556C67.9173 10.8088 68.6126 10.2995 69.4371 9.92767C70.2779 9.53963 71.248 9.34562 72.3474 9.34562C73.4953 9.34562 74.522 9.57197 75.4274 10.0247C76.3328 10.4612 77.0523 11.0756 77.5858 11.8678C78.1356 12.6601 78.4427 13.5817 78.5074 14.6326H75.2334C75.1525 13.9535 74.8615 13.3876 74.3603 12.9349C73.8753 12.4822 73.2043 12.2559 72.3474 12.2559C71.6036 12.2559 70.9812 12.4337 70.48 12.7894C69.9949 13.1451 69.6311 13.6382 69.3886 14.2688C69.1461 14.8832 69.0248 15.5946 69.0248 16.403C69.0248 17.1791 69.138 17.8824 69.3644 18.5129C69.6069 19.1435 69.9707 19.6366 70.4557 19.9923C70.9569 20.348 71.5956 20.5258 72.3716 20.5258C72.9537 20.5258 73.4549 20.4208 73.8753 20.2106C74.2956 20.0004 74.6271 19.7094 74.8696 19.3375C75.1283 18.9656 75.29 18.5453 75.3546 18.0764H78.6287C78.564 19.1435 78.2487 20.0812 77.6828 20.8896C77.1331 21.6819 76.3975 22.3043 75.4759 22.757C74.5705 23.2098 73.5357 23.4361 72.3716 23.4361Z" fill="#302C2A"/>
<path d="M82.8328 22.6843C83.6251 22.9915 84.6275 23.1451 85.8401 23.1451H87.7318V20.2591H85.6703C85.0236 20.2591 84.5224 20.0893 84.1667 19.7498C83.8272 19.3941 83.6574 18.8929 83.6574 18.2461L83.6693 12.2801H87.7318V9.80641H83.6742L83.6816 6.09583H80.5289L80.5213 9.80641H78.4189V12.2801H80.5163L80.5046 18.0279C80.5046 19.3052 80.6986 20.3237 81.0867 21.0836C81.4747 21.8274 82.0568 22.3609 82.8328 22.6843Z" fill="#302C2A"/>
<path d="M93.8351 23.3876C92.3153 23.3876 91.1351 22.8864 90.2943 21.884C89.4698 20.8815 89.0575 19.3941 89.0575 17.4216V9.78215H92.4285V17.7126C92.4285 18.521 92.6549 19.1677 93.1076 19.6528C93.5603 20.1216 94.1747 20.3561 94.9507 20.3561C95.7268 20.3561 96.3574 20.1055 96.8424 19.6043C97.3436 19.1031 97.5942 18.424 97.5942 17.5671V9.78215H100.965V22.9753H98.2975V19.9087C98.2296 20.1876 98.1488 20.45 98.055 20.6956C97.7155 21.5849 97.2062 22.2558 96.5271 22.7085C95.8481 23.1612 94.9992 23.3876 93.9807 23.3876H93.8351Z" fill="#302C2A"/>
<path d="M104.134 22.2477C105.169 23.0077 106.592 23.3876 108.403 23.3876C109.567 23.3876 110.577 23.2097 111.434 22.8541C112.291 22.4984 112.954 22.0052 113.423 21.3747C113.908 20.7279 114.15 19.968 114.15 19.095C114.15 17.9147 113.706 16.977 112.817 16.2817C111.944 15.5865 110.731 15.158 109.179 14.9964L108.015 14.8751C107.303 14.7943 106.786 14.6407 106.463 14.4143C106.155 14.188 106.002 13.8646 106.002 13.4442C106.002 13.0077 106.196 12.652 106.584 12.3771C106.972 12.1023 107.522 11.9648 108.233 11.9648C109.025 11.9648 109.631 12.1265 110.052 12.4499C110.472 12.7732 110.699 13.1613 110.731 13.614H113.762C113.714 12.2397 113.188 11.1969 112.186 10.4855C111.184 9.77407 109.874 9.41837 108.257 9.41837C107.222 9.41837 106.301 9.58005 105.492 9.90341C104.7 10.2106 104.078 10.6714 103.625 11.2858C103.172 11.9002 102.946 12.6601 102.946 13.5655C102.946 14.6973 103.342 15.6027 104.134 16.2817C104.927 16.9608 106.058 17.3812 107.53 17.5428L108.694 17.6641C109.567 17.7449 110.181 17.9147 110.537 18.1734C110.909 18.4321 111.095 18.7797 111.095 19.2162C111.095 19.7174 110.852 20.1136 110.367 20.4046C109.898 20.6956 109.26 20.8411 108.451 20.8411C107.481 20.8411 106.77 20.6552 106.317 20.2833C105.864 19.9115 105.614 19.4992 105.565 19.0465H102.534C102.582 20.4046 103.116 21.4717 104.134 22.2477Z" fill="#302C2A"/>
<path fill-rule="evenodd" clip-rule="evenodd" d="M15.4311 0C7.39533 0 0.881042 6.51428 0.881042 14.5501C0.881042 22.5858 7.39533 29.1001 15.4311 29.1001C23.4669 29.1001 29.9812 22.5858 29.9812 14.5501C29.9812 6.51428 23.4669 0 15.4311 0ZM4.14365 14.5501C4.14365 8.31617 9.19722 3.26261 15.4311 3.26261C21.665 3.26261 26.7186 8.31617 26.7186 14.5501C26.7186 20.2392 22.5095 24.9454 17.0356 25.7243V23.2345L19.9327 22.165C21.6071 21.547 22.719 19.9512 22.719 18.1664V13.2641C22.719 12.3631 21.9887 11.6327 21.0877 11.6327C20.1868 11.6327 19.4564 12.3631 19.4564 13.2641V18.1664C19.4564 18.585 19.1956 18.9593 18.8028 19.1043L17.0356 19.7567V6.84417C17.0356 5.94322 16.3052 5.21286 15.4043 5.21286C14.5033 5.21286 13.773 5.94322 13.773 6.84417V13.8436L12.0585 13.2107C11.6658 13.0657 11.405 12.6914 11.405 12.2727V10.1594C11.405 9.25846 10.6746 8.5281 9.77366 8.5281C8.87272 8.5281 8.14236 9.25846 8.14236 10.1594V12.2727C8.14236 14.0575 9.25432 15.6533 10.9287 16.2714L13.773 17.3214V25.7166C8.3252 24.9146 4.14365 20.2207 4.14365 14.5501Z" fill="#302C2A"/>
</svg>
