<svg width="75" height="75" viewBox="0 0 75 75" fill="none" xmlns="http://www.w3.org/2000/svg">
<path d="M62.062 1H13.4198C6.82698 1 1.48242 6.34134 1.48242 12.9302V61.5431C1.48242 68.132 6.82698 73.4734 13.4198 73.4734H62.062C68.6549 73.4734 73.9994 68.132 73.9994 61.5431V12.9302C73.9994 6.34134 68.6549 1 62.062 1Z" fill="white" stroke="#EF7123" stroke-width="2" stroke-miterlimit="10"/>
<mask id="path-2-inside-1_1428_79" fill="white">
<path d="M57.6601 38.5975L51.785 23.9098C51.7201 23.7488 51.6001 23.616 51.4465 23.535C51.2929 23.454 51.1156 23.43 50.946 23.4674L38.6194 26.2029V21.2459C38.6194 21.0511 38.542 20.8643 38.4043 20.7266C38.2666 20.5888 38.0798 20.5115 37.885 20.5115C37.6902 20.5115 37.5034 20.5888 37.3657 20.7266C37.228 20.8643 37.1506 21.0511 37.1506 21.2459V26.5316L24.5064 29.3424C24.3901 29.3684 24.2819 29.4222 24.191 29.4993C24.1002 29.5764 24.0295 29.6744 23.985 29.7849L18.1099 44.4726C18.0748 44.5595 18.0568 44.6524 18.0566 44.7461C18.0566 48.4915 22.1104 49.8868 24.6661 49.8868C27.2217 49.8868 31.2755 48.4915 31.2755 44.7461C31.2754 44.6524 31.2573 44.5595 31.2223 44.4726L25.6685 30.5872L37.1506 28.0389V52.8243H33.4787C33.2839 52.8243 33.0971 52.9017 32.9594 53.0394C32.8217 53.1772 32.7443 53.364 32.7443 53.5587C32.7443 53.7535 32.8217 53.9403 32.9594 54.078C33.0971 54.2157 33.2839 54.2931 33.4787 54.2931H42.2913C42.4861 54.2931 42.6729 54.2157 42.8106 54.078C42.9483 53.9403 43.0257 53.7535 43.0257 53.5587C43.0257 53.364 42.9483 53.1772 42.8106 53.0394C42.6729 52.9017 42.4861 52.8243 42.2913 52.8243H38.6194V27.7103L49.905 25.2023L44.5477 38.6048C44.5135 38.6895 44.4955 38.7798 44.4944 38.8711C44.4944 42.6164 48.5482 44.0117 51.1039 44.0117C53.6595 44.0117 57.7133 42.6164 57.7133 38.8711C57.7132 38.7773 57.6952 38.6845 57.6601 38.5975ZM24.6661 48.418C23.3534 48.418 19.6411 47.7644 19.5254 44.8802L24.6661 32.0284L29.8068 44.8802C29.6911 47.7644 25.9788 48.418 24.6661 48.418ZM51.1039 42.543C49.7912 42.543 46.0789 41.8894 45.9632 39.0051L51.1039 26.1534L56.2446 39.0051C56.1289 41.8894 52.4166 42.543 51.1039 42.543Z"/>
</mask>
<path d="M57.6601 38.5975L51.785 23.9098C51.7201 23.7488 51.6001 23.616 51.4465 23.535C51.2929 23.454 51.1156 23.43 50.946 23.4674L38.6194 26.2029V21.2459C38.6194 21.0511 38.542 20.8643 38.4043 20.7266C38.2666 20.5888 38.0798 20.5115 37.885 20.5115C37.6902 20.5115 37.5034 20.5888 37.3657 20.7266C37.228 20.8643 37.1506 21.0511 37.1506 21.2459V26.5316L24.5064 29.3424C24.3901 29.3684 24.2819 29.4222 24.191 29.4993C24.1002 29.5764 24.0295 29.6744 23.985 29.7849L18.1099 44.4726C18.0748 44.5595 18.0568 44.6524 18.0566 44.7461C18.0566 48.4915 22.1104 49.8868 24.6661 49.8868C27.2217 49.8868 31.2755 48.4915 31.2755 44.7461C31.2754 44.6524 31.2573 44.5595 31.2223 44.4726L25.6685 30.5872L37.1506 28.0389V52.8243H33.4787C33.2839 52.8243 33.0971 52.9017 32.9594 53.0394C32.8217 53.1772 32.7443 53.364 32.7443 53.5587C32.7443 53.7535 32.8217 53.9403 32.9594 54.078C33.0971 54.2157 33.2839 54.2931 33.4787 54.2931H42.2913C42.4861 54.2931 42.6729 54.2157 42.8106 54.078C42.9483 53.9403 43.0257 53.7535 43.0257 53.5587C43.0257 53.364 42.9483 53.1772 42.8106 53.0394C42.6729 52.9017 42.4861 52.8243 42.2913 52.8243H38.6194V27.7103L49.905 25.2023L44.5477 38.6048C44.5135 38.6895 44.4955 38.7798 44.4944 38.8711C44.4944 42.6164 48.5482 44.0117 51.1039 44.0117C53.6595 44.0117 57.7133 42.6164 57.7133 38.8711C57.7132 38.7773 57.6952 38.6845 57.6601 38.5975ZM24.6661 48.418C23.3534 48.418 19.6411 47.7644 19.5254 44.8802L24.6661 32.0284L29.8068 44.8802C29.6911 47.7644 25.9788 48.418 24.6661 48.418ZM51.1039 42.543C49.7912 42.543 46.0789 41.8894 45.9632 39.0051L51.1039 26.1534L56.2446 39.0051C56.1289 41.8894 52.4166 42.543 51.1039 42.543Z" fill="white"/>
<path d="M57.6601 38.5975L54.8747 39.7117L54.8776 39.719L57.6601 38.5975ZM51.785 23.9098L54.5705 22.7957L54.5672 22.7876L51.785 23.9098ZM50.946 23.4674L50.3007 20.5376L50.296 20.5386L50.946 23.4674ZM38.6194 26.2029H35.6194V29.9417L39.2693 29.1317L38.6194 26.2029ZM37.1506 26.5316L37.8016 29.4601L40.1506 28.9379V26.5316H37.1506ZM24.5064 29.3424L23.8553 26.4139L23.8535 26.4143L24.5064 29.3424ZM23.985 29.7849L21.2021 28.6643L21.1995 28.6707L23.985 29.7849ZM18.1099 44.4726L20.8924 45.594L20.8953 45.5867L18.1099 44.4726ZM18.0566 44.7461L15.0566 44.7422V44.7461H18.0566ZM31.2755 44.7461H34.2755L34.2755 44.7422L31.2755 44.7461ZM31.2223 44.4726L28.4368 45.5867L28.4398 45.594L31.2223 44.4726ZM25.6685 30.5872L25.0185 27.6585L21.572 28.4234L22.8831 31.7013L25.6685 30.5872ZM37.1506 28.0389H40.1506V24.3001L36.5006 25.1102L37.1506 28.0389ZM37.1506 52.8243V55.8243H40.1506V52.8243H37.1506ZM38.6194 52.8243H35.6194V55.8243H38.6194V52.8243ZM38.6194 27.7103L37.9686 24.7817L35.6194 25.3038V27.7103H38.6194ZM49.905 25.2023L52.6907 26.3159L54.799 21.0416L49.2542 22.2738L49.905 25.2023ZM44.5477 38.6048L47.33 39.7268L47.3334 39.7184L44.5477 38.6048ZM44.4944 38.8711L41.4946 38.8366L41.4944 38.8538V38.8711H44.4944ZM57.7133 38.8711H60.7134L60.7133 38.8671L57.7133 38.8711ZM19.5254 44.8802L16.74 43.766L16.5022 44.3605L16.5278 45.0004L19.5254 44.8802ZM24.6661 32.0284L27.4515 30.9143L24.6661 23.9507L21.8807 30.9143L24.6661 32.0284ZM29.8068 44.8802L32.8044 45.0004L32.83 44.3605L32.5922 43.766L29.8068 44.8802ZM45.9632 39.0051L43.1778 37.8909L42.94 38.4855L42.9656 39.1253L45.9632 39.0051ZM51.1039 26.1534L53.8893 25.0392L51.1039 18.0756L48.3185 25.0392L51.1039 26.1534ZM56.2446 39.0051L59.2422 39.1253L59.2678 38.4855L59.03 37.8909L56.2446 39.0051ZM60.4455 37.4833L54.5705 22.7957L48.9996 25.024L54.8747 39.7117L60.4455 37.4833ZM54.5672 22.7876C54.2369 21.9686 53.627 21.2933 52.8459 20.8813L50.0471 26.1886C49.5733 25.9387 49.2033 25.529 49.0029 25.0321L54.5672 22.7876ZM52.8459 20.8813C52.0648 20.4694 51.1631 20.3476 50.3007 20.5376L51.5913 26.3971C51.0681 26.5124 50.521 26.4385 50.0471 26.1886L52.8459 20.8813ZM50.296 20.5386L37.9694 23.2742L39.2693 29.1317L51.596 26.3961L50.296 20.5386ZM41.6194 26.2029V21.2459H35.6194V26.2029H41.6194ZM41.6194 21.2459C41.6194 20.2554 41.2259 19.3056 40.5256 18.6053L36.283 22.8479C35.8581 22.423 35.6194 21.8467 35.6194 21.2459H41.6194ZM40.5256 18.6053C39.8253 17.9049 38.8754 17.5115 37.885 17.5115V23.5115C37.2841 23.5115 36.7078 23.2728 36.283 22.8479L40.5256 18.6053ZM37.885 17.5115C36.8946 17.5115 35.9447 17.9049 35.2444 18.6053L39.487 22.8479C39.0621 23.2728 38.4859 23.5115 37.885 23.5115V17.5115ZM35.2444 18.6053C34.5441 19.3056 34.1506 20.2554 34.1506 21.2459H40.1506C40.1506 21.8467 39.9119 22.423 39.487 22.8479L35.2444 18.6053ZM34.1506 21.2459V26.5316H40.1506V21.2459H34.1506ZM36.4996 23.6031L23.8553 26.4139L25.1574 32.2709L37.8016 29.4601L36.4996 23.6031ZM23.8535 26.4143C23.2622 26.5462 22.7119 26.8199 22.2499 27.2119L26.1321 31.7867C25.8518 32.0245 25.518 32.1906 25.1592 32.2705L23.8535 26.4143ZM22.2499 27.2119C21.788 27.6039 21.4284 28.1023 21.2021 28.6643L26.7678 30.9055C26.6305 31.2464 26.4123 31.5489 26.1321 31.7867L22.2499 27.2119ZM21.1995 28.6707L15.3245 43.3584L20.8953 45.5867L26.7704 30.8991L21.1995 28.6707ZM15.3274 43.3511C15.1492 43.7932 15.0573 44.2654 15.0566 44.7422L21.0566 44.7501C21.0563 45.0393 21.0005 45.3258 20.8924 45.594L15.3274 43.3511ZM15.0566 44.7461C15.0566 47.9143 16.8507 50.0623 18.8352 51.2787C20.7222 52.4354 22.9401 52.8868 24.6661 52.8868V46.8868C23.8364 46.8868 22.7496 46.6406 21.9708 46.1632C21.2895 45.7457 21.0566 45.3233 21.0566 44.7461H15.0566ZM24.6661 52.8868C26.3921 52.8868 28.6099 52.4354 30.497 51.2787C32.4815 50.0623 34.2755 47.9143 34.2755 44.7461H28.2755C28.2755 45.3233 28.0427 45.7457 27.3614 46.1632C26.5826 46.6406 25.4958 46.8868 24.6661 46.8868V52.8868ZM34.2755 44.7422C34.2749 44.2654 34.183 43.7932 34.0048 43.3511L28.4398 45.594C28.3317 45.3258 28.2759 45.0393 28.2755 44.7501L34.2755 44.7422ZM34.0078 43.3585L28.454 29.4731L22.8831 31.7013L28.4368 45.5867L34.0078 43.3585ZM26.3185 33.516L37.8006 30.9676L36.5006 25.1102L25.0185 27.6585L26.3185 33.516ZM34.1506 28.0389V52.8243H40.1506V28.0389H34.1506ZM37.1506 49.8243H33.4787V55.8243H37.1506V49.8243ZM33.4787 49.8243C32.4883 49.8243 31.5384 50.2178 30.8381 50.9181L35.0807 55.1608C34.6558 55.5857 34.0796 55.8243 33.4787 55.8243V49.8243ZM30.8381 50.9181C30.1377 51.6185 29.7443 52.5683 29.7443 53.5587H35.7443C35.7443 54.1596 35.5056 54.7359 35.0807 55.1608L30.8381 50.9181ZM29.7443 53.5587C29.7443 54.5491 30.1377 55.499 30.8381 56.1993L35.0807 51.9567C35.5056 52.3816 35.7443 52.9579 35.7443 53.5587H29.7443ZM30.8381 56.1993C31.5384 56.8997 32.4883 57.2931 33.4787 57.2931V51.2931C34.0796 51.2931 34.6558 51.5318 35.0807 51.9567L30.8381 56.1993ZM33.4787 57.2931H42.2913V51.2931H33.4787V57.2931ZM42.2913 57.2931C43.2817 57.2931 44.2316 56.8997 44.9319 56.1993L40.6893 51.9567C41.1142 51.5318 41.6904 51.2931 42.2913 51.2931V57.2931ZM44.9319 56.1993C45.6322 55.499 46.0257 54.5491 46.0257 53.5587H40.0257C40.0257 52.9579 40.2644 52.3816 40.6893 51.9567L44.9319 56.1993ZM46.0257 53.5587C46.0257 52.5683 45.6322 51.6185 44.9319 50.9181L40.6893 55.1608C40.2644 54.7359 40.0257 54.1596 40.0257 53.5587H46.0257ZM44.9319 50.9181C44.2316 50.2178 43.2817 49.8243 42.2913 49.8243V55.8243C41.6904 55.8243 41.1142 55.5857 40.6893 55.1608L44.9319 50.9181ZM42.2913 49.8243H38.6194V55.8243H42.2913V49.8243ZM41.6194 52.8243V27.7103H35.6194V52.8243H41.6194ZM39.2702 30.6388L50.5558 28.1309L49.2542 22.2738L37.9686 24.7817L39.2702 30.6388ZM47.1193 24.0888L41.762 37.4913L47.3334 39.7184L52.6907 26.3159L47.1193 24.0888ZM41.7654 37.4829C41.5918 37.9134 41.5 38.3725 41.4946 38.8366L47.4942 38.9055C47.491 39.1871 47.4353 39.4656 47.33 39.7268L41.7654 37.4829ZM41.4944 38.8711C41.4944 42.0393 43.2885 44.1872 45.273 45.4037C47.16 46.5603 49.3779 47.0117 51.1039 47.0117V41.0117C50.2742 41.0117 49.1874 40.7655 48.4086 40.2882C47.7273 39.8706 47.4944 39.4482 47.4944 38.8711H41.4944ZM51.1039 47.0117C52.8299 47.0117 55.0477 46.5603 56.9348 45.4037C58.9193 44.1872 60.7133 42.0393 60.7133 38.8711H54.7133C54.7133 39.4482 54.4805 39.8706 53.7992 40.2882C53.0204 40.7655 51.9336 41.0117 51.1039 41.0117V47.0117ZM60.7133 38.8671C60.7127 38.3904 60.6208 37.9182 60.4426 37.476L54.8776 39.719C54.7695 39.4507 54.7137 39.1642 54.7134 38.875L60.7133 38.8671ZM24.6661 45.418C24.5533 45.418 24.2718 45.4004 23.9108 45.3285C23.5536 45.2575 23.2093 45.1512 22.9306 45.0193C22.6451 44.8841 22.5327 44.7718 22.5079 44.7417C22.5007 44.733 22.5097 44.7424 22.519 44.766C22.5289 44.7913 22.5244 44.7955 22.523 44.7599L16.5278 45.0004C16.6483 48.0049 18.7289 49.6684 20.3631 50.4422C21.9574 51.197 23.6725 51.418 24.6661 51.418V45.418ZM22.3108 45.9943L27.4515 33.1426L21.8807 30.9143L16.74 43.766L22.3108 45.9943ZM21.8807 33.1426L27.0213 45.9943L32.5922 43.766L27.4515 30.9143L21.8807 33.1426ZM26.8092 44.7599C26.8078 44.7955 26.8033 44.7913 26.8132 44.766C26.8225 44.7424 26.8315 44.733 26.8243 44.7417C26.7995 44.7718 26.6871 44.8841 26.4016 45.0193C26.1229 45.1512 25.7786 45.2575 25.4214 45.3285C25.0603 45.4004 24.7788 45.418 24.6661 45.418V51.418C25.6597 51.418 27.3747 51.197 28.9691 50.4422C30.6033 49.6684 32.6839 48.0049 32.8044 45.0004L26.8092 44.7599ZM51.1039 39.543C50.9911 39.543 50.7097 39.5253 50.3486 39.4535C49.9914 39.3824 49.6471 39.2761 49.3684 39.1442C49.0829 39.009 48.9705 38.8968 48.9457 38.8666C48.9385 38.8579 48.9475 38.8673 48.9568 38.8909C48.9667 38.9162 48.9622 38.9204 48.9608 38.8849L42.9656 39.1253C43.0861 42.1298 45.1667 43.7934 46.8009 44.5671C48.3952 45.3219 50.1103 45.543 51.1039 45.543V39.543ZM48.7486 40.1193L53.8893 27.2675L48.3185 25.0392L43.1778 37.8909L48.7486 40.1193ZM48.3185 27.2675L53.4592 40.1193L59.03 37.8909L53.8893 25.0392L48.3185 27.2675ZM53.247 38.8849C53.2456 38.9204 53.2411 38.9162 53.251 38.8909C53.2603 38.8673 53.2693 38.8579 53.2621 38.8666C53.2373 38.8968 53.1249 39.009 52.8394 39.1442C52.5607 39.2761 52.2164 39.3824 51.8592 39.4535C51.4981 39.5253 51.2166 39.543 51.1039 39.543V45.543C52.0975 45.543 53.8125 45.3219 55.4069 44.5671C57.0411 43.7934 59.1217 42.1298 59.2422 39.1253L53.247 38.8849Z" fill="#EF7123" mask="url(#path-2-inside-1_1428_79)"/>
</svg>
