<svg width="75" height="75" viewBox="0 0 75 75" fill="none" xmlns="http://www.w3.org/2000/svg">
<path d="M61.5796 1H12.9374C6.34456 1 1 6.34134 1 12.9302V61.5431C1 68.132 6.34456 73.4734 12.9374 73.4734H61.5796C68.1724 73.4734 73.517 68.132 73.517 61.5431V12.9302C73.517 6.34134 68.1724 1 61.5796 1Z" fill="white" stroke="#EF7123" stroke-width="2" stroke-miterlimit="10"/>
<path d="M20.2656 22.0513V47.8555C20.2656 48.8332 20.654 49.7708 21.3453 50.4621C22.0366 51.1534 22.9743 51.5418 23.9519 51.5418H49.7562C50.7338 51.5418 51.6715 51.1534 52.3628 50.4621C53.0541 49.7708 53.4425 48.8332 53.4425 47.8555V29.4239H46.0698" stroke="#EF7123" stroke-width="2" stroke-linecap="round" stroke-linejoin="round"/>
<path d="M20.2656 22.0513H46.0699V47.8555C46.0699 48.8332 46.4582 49.7708 47.1496 50.4621C47.8409 51.1534 48.7785 51.5418 49.7562 51.5418M38.6972 29.4239H27.6383M38.6972 36.7965H31.3246" stroke="#EF7123" stroke-width="2" stroke-linecap="round" stroke-linejoin="round"/>
</svg>
