<svg width="76" height="75" viewBox="0 0 76 75" fill="none" xmlns="http://www.w3.org/2000/svg">
<path d="M62.3491 1.03467H13.7069C7.11409 1.03467 1.76953 6.37601 1.76953 12.9649V61.5778C1.76953 68.1667 7.11409 73.508 13.7069 73.508H62.3491C68.942 73.508 74.2865 68.1667 74.2865 61.5778V12.9649C74.2865 6.37601 68.942 1.03467 62.3491 1.03467Z" fill="white" stroke="#EF7123" stroke-width="2" stroke-miterlimit="10"/>
<path d="M47.5096 46.774C48.4101 46.774 49.2737 47.1317 49.9104 47.7685C50.5472 48.4052 50.9049 49.2688 50.9049 50.1693C50.9049 51.0698 50.5472 51.9334 49.9104 52.5701C49.2737 53.2069 48.4101 53.5646 47.5096 53.5646C46.6091 53.5646 45.7455 53.2069 45.1088 52.5701C44.472 51.9334 44.1143 51.0698 44.1143 50.1693C44.1143 49.2688 44.472 48.4052 45.1088 47.7685C45.7455 47.1317 46.6091 46.774 47.5096 46.774ZM47.5096 48.4717C47.0594 48.4717 46.6276 48.6505 46.3092 48.9689C45.9908 49.2873 45.812 49.7191 45.812 50.1693C45.812 50.6196 45.9908 51.0514 46.3092 51.3697C46.6276 51.6881 47.0594 51.867 47.5096 51.867C47.9599 51.867 48.3917 51.6881 48.71 51.3697C49.0284 51.0514 49.2073 50.6196 49.2073 50.1693C49.2073 49.7191 49.0284 49.2873 48.71 48.9689C48.3917 48.6505 47.9599 48.4717 47.5096 48.4717ZM32.2308 46.774C33.1313 46.774 33.9949 47.1317 34.6316 47.7685C35.2684 48.4052 35.6261 49.2688 35.6261 50.1693C35.6261 51.0698 35.2684 51.9334 34.6316 52.5701C33.9949 53.2069 33.1313 53.5646 32.2308 53.5646C31.3303 53.5646 30.4667 53.2069 29.83 52.5701C29.1932 51.9334 28.8355 51.0698 28.8355 50.1693C28.8355 49.2688 29.1932 48.4052 29.83 47.7685C30.4667 47.1317 31.3303 46.774 32.2308 46.774ZM32.2308 48.4717C31.7806 48.4717 31.3488 48.6505 31.0304 48.9689C30.712 49.2873 30.5332 49.7191 30.5332 50.1693C30.5332 50.6196 30.712 51.0514 31.0304 51.3697C31.3488 51.6881 31.7806 51.867 32.2308 51.867C32.681 51.867 33.1128 51.6881 33.4312 51.3697C33.7496 51.0514 33.9284 50.6196 33.9284 50.1693C33.9284 49.7191 33.7496 49.2873 33.4312 48.9689C33.1128 48.6505 32.681 48.4717 32.2308 48.4717ZM50.9049 26.4023H27.5962L31.9252 36.5881H45.812C46.3722 36.5881 46.8645 36.3165 47.1701 35.9091L52.263 29.1185C52.4837 28.8299 52.6026 28.4734 52.6026 28.0999C52.6026 27.6497 52.4237 27.2179 52.1053 26.8995C51.787 26.5811 51.3552 26.4023 50.9049 26.4023ZM45.812 38.2858H32.0101L30.7029 40.9341L30.5332 41.6811C30.5332 42.1313 30.712 42.5631 31.0304 42.8815C31.3488 43.1999 31.7806 43.3787 32.2308 43.3787H50.9049V45.0764H32.2308C31.3303 45.0764 30.4667 44.7187 29.83 44.0819C29.1932 43.4452 28.8355 42.5816 28.8355 41.6811C28.835 41.1051 28.9811 40.5384 29.2599 40.0344L30.4822 37.5388L24.3198 23.007H22.0449V21.3093H25.4402L26.8832 24.7046H50.9049C51.8054 24.7046 52.669 25.0623 53.3057 25.6991C53.9425 26.3358 54.3002 27.1994 54.3002 28.0999C54.3002 28.9487 54.0116 29.6617 53.5363 30.2389L48.5961 36.8428C47.985 37.7086 46.9664 38.2858 45.812 38.2858Z" fill="#EF7123"/>
</svg>
