<svg width="76" height="75" viewBox="0 0 76 75" fill="none" xmlns="http://www.w3.org/2000/svg">
<path d="M62.2534 1.03467H13.6112C7.01839 1.03467 1.67383 6.37601 1.67383 12.9649V61.5778C1.67383 68.1667 7.01839 73.508 13.6112 73.508H62.2534C68.8463 73.508 74.1908 68.1667 74.1908 61.5778V12.9649C74.1908 6.37601 68.8463 1.03467 62.2534 1.03467Z" fill="white" stroke="#EF7123" stroke-width="2" stroke-miterlimit="10"/>
<path d="M52.4519 32.2053C52.4519 24.1991 45.9607 17.7163 37.9545 17.7163C29.9483 17.7163 23.457 24.1991 23.457 32.2053C23.457 37.9857 26.8423 42.9789 31.7425 45.3063V50.3842H44.395V45.1963C49.1682 42.8266 52.4435 37.901 52.4435 32.2138L52.4519 32.2053Z" stroke="#EF7123" stroke-linecap="round" stroke-linejoin="round"/>
<path d="M52.3478 32.1205C52.3478 24.1143 45.8565 17.623 37.8588 17.623C29.8611 17.623 23.3613 24.1143 23.3613 32.1205C23.3613 37.9009 26.7466 42.8941 31.6468 45.2215V50.2994H44.2993V45.1115C49.0725 42.7418 52.3478 37.8162 52.3478 32.129V32.1205Z" stroke="#EF7123" stroke-width="2" stroke-linecap="round" stroke-linejoin="round"/>
<path d="M35.8776 51.7635C35.8776 51.7635 37.7141 31.7396 32.1961 30.487C28.7347 29.7 31.7391 35.0741 34.9551 35.0741C37.8495 35.0741 40.0161 32.1543 40.0161 29.2345C40.0161 26.3147 38.6366 24.2327 37.2571 25.9C35.8776 27.5672 37.7141 34.6594 40.9386 35.0741C44.1631 35.4888 46.4566 32.1543 45.5426 31.7396C44.6286 31.3249 41.8019 32.6367 41.1079 35.7004C40.0161 40.499 40.6085 51.3404 40.6085 51.3404" stroke="#EF7123" stroke-width="2" stroke-linecap="round" stroke-linejoin="round"/>
<path d="M43.0646 49.9185H33.3065C32.0866 49.9185 31.0977 50.9074 31.0977 52.1274V55.0725C31.0977 56.2925 32.0866 57.2814 33.3065 57.2814H43.0646C44.2845 57.2814 45.2735 56.2925 45.2735 55.0725V52.1274C45.2735 50.9074 44.2845 49.9185 43.0646 49.9185Z" fill="#EF7123"/>
<path d="M45.7728 50.7028H30.5898V51.6252H45.7728V50.7028Z" fill="#EF7123"/>
<path d="M45.7709 52.2206H30.5879V53.1431H45.7709V52.2206Z" fill="#EF7123"/>
</svg>
