<svg width="75" height="76" viewBox="0 0 75 76" fill="none" xmlns="http://www.w3.org/2000/svg">
<path d="M61.9155 1.78394H13.2733C6.6805 1.78394 1.33594 7.12528 1.33594 13.7142V62.3271C1.33594 68.916 6.6805 74.2573 13.2733 74.2573H61.9155C68.5084 74.2573 73.8529 68.916 73.8529 62.3271V13.7142C73.8529 7.12528 68.5084 1.78394 61.9155 1.78394Z" fill="white" stroke="#EF7123" stroke-width="2" stroke-miterlimit="10"/>
<path d="M40.0484 52.3325C40.159 52.3762 40.2587 52.3981 40.3474 52.3981C40.4361 52.3981 40.5357 52.3762 40.6463 52.3325L50.6961 49.236C50.6616 48.7107 50.5043 48.3322 50.2244 48.1007C49.9445 47.8691 49.6277 47.7534 49.274 47.7534H41.0749C40.3445 47.7534 39.6821 47.7246 39.0877 47.667C38.4933 47.6094 37.8856 47.4717 37.2647 47.254L34.303 46.3002C34.0668 46.223 33.8969 46.068 33.7932 45.8353C33.6895 45.6026 33.6769 45.3722 33.7552 45.1441C33.8335 44.9161 33.9816 44.749 34.1993 44.643C34.417 44.5371 34.6457 44.5238 34.8853 44.6033L37.5636 45.5727C38.1189 45.7616 38.734 45.8826 39.4091 45.9356C40.0842 45.9885 40.9188 46.0185 41.9129 46.0254H42.3622C42.3622 45.4874 42.2625 45.052 42.0632 44.7191C41.864 44.3862 41.58 44.1546 41.2114 44.0244L31.2687 40.3767C31.203 40.3537 31.1425 40.3364 31.0872 40.3249C31.0319 40.3133 30.9709 40.3082 30.9041 40.3093H27.2754V48.6173L40.0484 52.3325ZM39.6061 54.0397L27.2754 50.4317C27.1118 51.1137 26.7633 51.6574 26.2299 52.0629C25.6966 52.4684 25.1154 52.6711 24.4864 52.6711H23.1559C22.3887 52.6711 21.7321 52.3976 21.186 51.8504C20.6388 51.3043 20.3652 50.6477 20.3652 49.8805V41.3737C20.3652 40.6054 20.6383 39.9482 21.1843 39.4021C21.7315 38.8549 22.3887 38.5814 23.1559 38.5814H30.8678C31.0291 38.5814 31.1944 38.5998 31.3637 38.6366C31.533 38.6735 31.6914 38.7161 31.8389 38.7645L41.8265 42.4226C42.444 42.6576 42.9756 43.0798 43.4214 43.6892C43.8684 44.2986 44.0919 45.0773 44.0919 46.0254H49.2758C50.316 46.0254 51.1132 46.3508 51.6673 47.0017C52.2214 47.6537 52.4984 48.4803 52.4984 49.4813C52.4984 49.8269 52.4051 50.1189 52.2185 50.3574C52.0319 50.5959 51.7583 50.7744 51.3977 50.8931L41.2304 54.0311C40.9804 54.1013 40.7154 54.1416 40.4355 54.152C40.1567 54.1635 39.8808 54.1261 39.6078 54.0397M22.0915 49.8805C22.0915 50.1904 22.1911 50.445 22.3904 50.6442C22.5897 50.8435 22.8443 50.9432 23.1542 50.9432H24.4847C24.7946 50.9432 25.0492 50.8602 25.2485 50.6944C25.4477 50.5285 25.5474 50.2572 25.5474 49.8805V40.3093H23.1542C22.8443 40.3093 22.5897 40.409 22.3904 40.6083C22.1911 40.8075 22.0915 41.0627 22.0915 41.3737V49.8805ZM39.5301 21.6145C39.8134 21.6145 40.0934 21.6594 40.3698 21.7493C40.6463 21.8391 40.909 21.9659 41.1578 22.1294L49.5989 28.141C49.971 28.391 50.259 28.7222 50.4629 29.1346C50.6668 29.547 50.7687 29.9738 50.7687 30.415V41.0385C50.7687 41.2839 50.6858 41.4889 50.5199 41.6537C50.354 41.8196 50.1484 41.9025 49.903 41.9025C49.6588 41.9025 49.4537 41.8196 49.2878 41.6537C49.122 41.4878 49.0396 41.2839 49.0408 41.042V30.3735C49.0408 30.1961 49.0022 30.0302 48.925 29.8759C48.8478 29.7215 48.7314 29.5885 48.5759 29.4767L40.1348 23.5947C39.9574 23.4623 39.7581 23.396 39.537 23.396C39.3158 23.396 39.1165 23.4623 38.9391 23.5947L30.498 29.4767C30.3436 29.5873 30.2273 29.7198 30.149 29.8742C30.0706 30.0285 30.032 30.1961 30.0332 30.377V33.5996C30.0332 33.8439 29.9502 34.0489 29.7844 34.2148C29.6185 34.3807 29.4128 34.4636 29.1675 34.4636C28.9221 34.4636 28.717 34.3807 28.5523 34.2148C28.3876 34.0489 28.3052 33.8433 28.3052 33.5979V30.4185C28.3052 29.975 28.4072 29.547 28.6111 29.1346C28.815 28.7222 29.103 28.391 29.475 28.141L37.9161 22.1294C38.1661 21.9659 38.427 21.8391 38.6989 21.7493C38.9708 21.6594 39.2478 21.6145 39.5301 21.6145ZM37.809 30.9714C37.9956 30.9714 38.1586 30.9023 38.298 30.7641C38.4374 30.6258 38.5065 30.4622 38.5054 30.2733C38.5042 30.0844 38.4351 29.922 38.298 29.786C38.1609 29.6501 37.9979 29.5804 37.809 29.5769C37.6201 29.5735 37.4571 29.6426 37.32 29.7843C37.1829 29.926 37.1138 30.089 37.1126 30.2733C37.1115 30.4576 37.1806 30.6206 37.32 30.7623C37.4594 30.904 37.6224 30.9737 37.809 30.9714ZM41.2649 30.9714C41.4515 30.9714 41.6146 30.9023 41.7539 30.7641C41.8933 30.6258 41.9624 30.4622 41.9613 30.2733C41.9601 30.0844 41.891 29.922 41.7539 29.786C41.6169 29.6501 41.4538 29.5804 41.2649 29.5769C41.076 29.5735 40.913 29.6426 40.7759 29.7843C40.6388 29.926 40.5697 30.089 40.5686 30.2733C40.5674 30.4576 40.6365 30.6206 40.7759 30.7623C40.9153 30.904 41.0783 30.9737 41.2649 30.9714ZM37.809 34.4273C37.9956 34.4273 38.1586 34.3582 38.298 34.22C38.4374 34.0817 38.5065 33.9182 38.5054 33.7292C38.5042 33.5403 38.4351 33.3779 38.298 33.242C38.1609 33.106 37.9979 33.0363 37.809 33.0329C37.6201 33.0294 37.4571 33.0985 37.32 33.2402C37.1829 33.3819 37.1138 33.5449 37.1126 33.7292C37.1115 33.9136 37.1806 34.0766 37.32 34.2183C37.4594 34.3599 37.6224 34.4296 37.809 34.4273ZM41.2649 34.4273C41.4515 34.4273 41.6146 34.3582 41.7539 34.22C41.8933 34.0817 41.9624 33.9182 41.9613 33.7292C41.9601 33.5403 41.891 33.3779 41.7539 33.242C41.6169 33.106 41.4538 33.0363 41.2649 33.0329C41.076 33.0294 40.913 33.0985 40.7759 33.2402C40.6388 33.3819 40.5697 33.5449 40.5686 33.7292C40.5674 33.9136 40.6365 34.0766 40.7759 34.2183C40.9153 34.3599 41.0783 34.4296 41.2649 34.4273Z" fill="#EF7123"/>
</svg>
