<svg width="70" height="70" viewBox="0 0 70 70" fill="none" xmlns="http://www.w3.org/2000/svg">
<rect x="0.5" y="0.5" width="69" height="69" rx="13.5" fill="white"/>
<rect x="0.5" y="0.5" width="69" height="69" rx="13.5" stroke="#E8E3DC"/>
<rect x="0.5" y="0.5" width="69" height="69" rx="13.5" stroke="url(#paint0_linear_9_17437)"/>
<path d="M40 45V42.5M42.5 40H45M28.8125 34.1163L27.0447 35.884C25.0921 37.8366 25.0933 41.002 27.0459 42.9546C28.9986 44.9073 32.1635 44.9077 34.1161 42.9551L35.8845 41.1871M27.5 30H25M30 25V27.5M34.1163 28.813L35.884 27.0453C37.8366 25.0927 41.002 25.0921 42.9546 27.0447C44.9073 28.9973 44.9068 32.1635 42.9541 34.1161L41.1865 35.8839" stroke="black" stroke-width="2.5" stroke-linecap="round" stroke-linejoin="round"/>
<defs>
<linearGradient id="paint0_linear_9_17437" x1="35" y1="0" x2="35" y2="85.7679" gradientUnits="userSpaceOnUse">
<stop stop-color="#FF7A1C"/>
<stop offset="1" stop-color="white" stop-opacity="0"/>
<stop offset="1" stop-color="#FF7A1C" stop-opacity="0"/>
</linearGradient>
</defs>
</svg>
