<svg width="70" height="70" viewBox="0 0 70 70" fill="none" xmlns="http://www.w3.org/2000/svg">
<rect x="0.5" y="0.5" width="69" height="69" rx="13.5" fill="white"/>
<rect x="0.5" y="0.5" width="69" height="69" rx="13.5" stroke="#E8E3DC"/>
<rect x="0.5" y="0.5" width="69" height="69" rx="13.5" stroke="url(#paint0_linear_9_17441)"/>
<path d="M46.25 32.5C46.25 41.25 35 48.75 35 48.75C35 48.75 23.75 41.25 23.75 32.5C23.75 29.5163 24.9353 26.6548 27.045 24.545C29.1548 22.4353 32.0163 21.25 35 21.25C37.9837 21.25 40.8452 22.4353 42.955 24.545C45.0647 26.6548 46.25 29.5163 46.25 32.5Z" stroke="black" stroke-width="2.5" stroke-linecap="round" stroke-linejoin="round"/>
<path d="M35 36.25C37.0711 36.25 38.75 34.5711 38.75 32.5C38.75 30.4289 37.0711 28.75 35 28.75C32.9289 28.75 31.25 30.4289 31.25 32.5C31.25 34.5711 32.9289 36.25 35 36.25Z" stroke="black" stroke-width="2.5" stroke-linecap="round" stroke-linejoin="round"/>
<defs>
<linearGradient id="paint0_linear_9_17441" x1="35" y1="0" x2="35" y2="85.7679" gradientUnits="userSpaceOnUse">
<stop stop-color="#FF7A1C"/>
<stop offset="1" stop-color="white" stop-opacity="0"/>
<stop offset="1" stop-color="#FF7A1C" stop-opacity="0"/>
</linearGradient>
</defs>
</svg>
