<svg width="99" height="27" viewBox="0 0 99 27" fill="none" xmlns="http://www.w3.org/2000/svg">
<path d="M37.0771 4.87781H40.594L36.7616 21.3716H30.5764L26.744 4.87781H30.2611L33.1235 18.4609H34.2148L37.0771 4.87781Z" fill="#302C2A"/>
<path d="M43.9473 16.6903C43.9634 17.4341 44.1574 17.9758 44.5293 18.3154C44.9173 18.6388 45.4672 18.8005 46.1788 18.8005C47.6825 18.8005 49.0248 18.752 50.2052 18.655L50.8843 18.5822L50.9329 20.9837C49.0733 21.4363 47.3914 21.6628 45.8876 21.6628C44.0605 21.6628 42.7344 21.1777 41.9098 20.2074C41.085 19.2371 40.6728 17.6605 40.6728 15.4775C40.6728 11.1277 42.4596 8.95276 46.0331 8.95276C49.5582 8.95276 51.3209 10.78 51.3209 14.4345L51.0783 16.6903H43.9473ZM48.1191 14.2162C48.1191 13.246 47.9656 12.5749 47.6584 12.203C47.3511 11.8149 46.8094 11.6209 46.0331 11.6209C45.2732 11.6209 44.7314 11.823 44.408 12.2273C44.1008 12.6154 43.9392 13.2783 43.9229 14.2162H48.1191Z" fill="#302C2A"/>
<path d="M53.1588 21.3717V9.24382H56.3847V10.5294C57.743 9.72085 59.0367 9.19531 60.2656 8.95276V12.2273C58.9556 12.5022 57.8318 12.7851 56.894 13.0762L56.4089 13.246V21.3717H53.1588Z" fill="#302C2A"/>
<path d="M68.417 12.0089H65.4336V16.9813C65.4336 17.4664 65.4417 17.8141 65.4581 18.0243C65.4903 18.2184 65.5793 18.3881 65.7248 18.5337C65.8866 18.6792 66.1289 18.752 66.4525 18.752L68.296 18.7035L68.4414 21.2989C67.3579 21.5415 66.5333 21.6628 65.9674 21.6628C64.5119 21.6628 63.5175 21.3392 62.984 20.6925C62.4503 20.0294 62.1835 18.8167 62.1835 17.0541V12.0089H60.7523V9.24379H62.1835V5.87225H65.4336V9.24379H68.417V12.0089Z" fill="#302C2A"/>
<path d="M70.0484 21.3717V9.24382H73.2987V21.3717H70.0484ZM70.0484 7.69146V4.3927H73.2987V7.69146H70.0484Z" fill="#302C2A"/>
<path d="M86.8046 22.8754C86.8046 24.2662 86.2709 25.2929 85.2037 25.9559C84.1365 26.619 82.6891 26.9504 80.862 26.9504C79.051 26.9504 77.6522 26.7078 76.6658 26.2227C75.6955 25.7375 75.2103 24.8563 75.2103 23.579C75.2103 22.5601 75.7926 21.5979 76.9569 20.6925C76.3585 20.2881 76.0593 19.6737 76.0593 18.8491C76.0593 18.5256 76.3019 17.992 76.7871 17.2482L77.0052 16.9086C75.9058 16.1162 75.356 14.952 75.356 13.4158C75.356 11.8634 75.8168 10.7396 76.7385 10.0443C77.6763 9.34894 78.9134 9.00128 80.4496 9.00128C81.1448 9.00128 81.8323 9.08213 82.5115 9.24383L82.8995 9.3166L86.8046 9.19532V11.7907L84.9855 11.6451C85.3411 12.1949 85.519 12.7447 85.519 13.2945C85.519 14.9115 85.1068 16.0273 84.282 16.6418C83.4574 17.2563 82.1637 17.5635 80.401 17.5635C80.0291 17.5635 79.6977 17.5312 79.4066 17.4665C79.245 17.8869 79.164 18.2346 79.164 18.5095C79.164 18.7682 79.3016 18.9461 79.5764 19.0431C79.8512 19.1401 80.4981 19.1967 81.5168 19.2129C83.5542 19.229 84.945 19.504 85.6888 20.0375C86.4327 20.5551 86.8046 21.501 86.8046 22.8754ZM78.4121 23.2393C78.4121 23.9346 79.2611 24.2823 80.9589 24.2823C82.673 24.2823 83.5301 23.878 83.5301 23.0695C83.5301 22.6329 83.3846 22.35 83.0935 22.2207C82.8024 22.1075 82.1879 22.0428 81.25 22.0264L79.0671 21.8568C78.6305 22.2934 78.4121 22.7542 78.4121 23.2393ZM78.6061 13.3188C78.6061 14.4992 79.2206 15.0894 80.4496 15.0894C81.6947 15.0894 82.3172 14.4992 82.3172 13.3188C82.3172 12.1222 81.6947 11.5239 80.4496 11.5239C79.2206 11.5239 78.6061 12.1222 78.6061 13.3188Z" fill="#302C2A"/>
<path d="M88.9433 10.6264C89.8004 9.51063 91.2314 8.95276 93.2367 8.95276C95.2417 8.95276 96.673 9.51063 97.5298 10.6264C98.3869 11.726 98.8154 13.2783 98.8154 15.2835C98.8154 19.5363 96.9558 21.6628 93.2367 21.6628C89.5175 21.6628 87.658 19.5363 87.658 15.2835C87.658 13.2783 88.0865 11.726 88.9433 10.6264ZM91.4418 18.0243C91.7812 18.6065 92.3796 18.8976 93.2367 18.8976C94.0937 18.8976 94.6838 18.6065 95.0074 18.0243C95.3469 17.4422 95.5167 16.5286 95.5167 15.2835C95.5167 14.0383 95.3469 13.1328 95.0074 12.5668C94.6838 12.0009 94.0937 11.7179 93.2367 11.7179C92.3796 11.7179 91.7812 12.0009 91.4418 12.5668C91.1184 13.1328 90.9566 14.0383 90.9566 15.2835C90.9566 16.5286 91.1184 17.4422 91.4418 18.0243Z" fill="#302C2A"/>
<path fill-rule="evenodd" clip-rule="evenodd" d="M14.4161 3.95271C12.9636 3.35106 11.3921 3.09162 9.82337 3.19443C8.25457 3.29727 6.73045 3.7596 5.36892 4.54567L3.99518 5.3388L2.40893 2.59134L3.78267 1.79822C5.56564 0.768838 7.5615 0.163379 9.61586 0.0287429C11.6703 -0.105917 13.7281 0.233833 15.6301 1.02169C17.5322 1.80956 19.2275 3.02441 20.585 4.5723C21.9424 6.12016 22.9256 7.95957 23.4586 9.94822C23.9913 11.9368 24.0596 14.0214 23.658 16.0406C23.2563 18.0599 22.3955 19.9596 21.1422 21.593C19.8888 23.2263 18.2766 24.5495 16.4302 25.46C14.5837 26.3705 12.202 26.8442 10.4937 26.8442C8.78538 26.8442 7.78787 26.588 6.4779 26.0455C5.20475 25.5181 4.04796 24.7452 3.07352 23.7708C2.0991 22.7963 1.32615 21.6394 0.798786 20.3662C0.271444 19.0932 0 17.7286 0 16.3506C0 14.9725 0.271444 13.608 0.798786 12.3348C1.32615 11.0617 2.0991 9.90485 3.07352 8.93043C4.04796 7.95601 5.20475 7.18304 6.4779 6.6557C7.75105 6.12833 9.11561 5.85691 10.4936 5.85691C11.8717 5.85691 13.2362 6.12833 14.5094 6.6557C15.7825 7.18304 16.9394 7.95601 17.9138 8.93043C18.8882 9.90485 19.6611 11.0617 20.1885 12.3348C20.4154 12.8825 20.5948 13.447 20.7258 14.0223C20.7898 12.9302 20.6787 11.8318 20.3942 10.7693C19.9871 9.25071 19.2364 7.84607 18.1998 6.66407C17.1632 5.48205 15.8686 4.55434 14.4161 3.95271ZM4.15778 20.0187C4.33771 16.6081 7.16021 13.898 10.6157 13.898C13.9376 13.898 16.6745 16.4027 17.041 19.6265C17.1187 19.4713 17.1909 19.3131 17.2575 19.1522C17.6254 18.264 17.8148 17.312 17.8148 16.3506C17.8148 15.3891 17.6254 14.4371 17.2575 13.5489C16.8896 12.6606 16.3503 11.8536 15.6705 11.1737C14.9907 10.4939 14.1836 9.95463 13.2953 9.5867C12.4071 9.21879 11.4551 9.02941 10.4936 9.02941C9.53223 9.02941 8.58022 9.21879 7.69197 9.5867C6.80374 9.95463 5.99665 10.4939 5.31681 11.1737C4.637 11.8536 4.09772 12.6606 3.72978 13.5489C3.36187 14.4371 3.1725 15.3891 3.1725 16.3506C3.1725 17.312 3.36187 18.264 3.72978 19.1522C3.85349 19.4508 3.99652 19.7403 4.15778 20.0187ZM13.9102 20.365C13.9102 22.1845 12.4352 23.6595 10.6157 23.6595C8.79616 23.6595 7.32115 22.1845 7.32115 20.365C7.32115 18.5455 8.79616 17.0705 10.6157 17.0705C12.4352 17.0705 13.9102 18.5455 13.9102 20.365Z" fill="#302C2A"/>
</svg>
