<svg width="139" height="30" viewBox="0 0 139 30" fill="none" xmlns="http://www.w3.org/2000/svg">
<path d="M1.33514e-05 19.4193L9.83972 15.0399L15.5033 18.3245L16.6474 29.1001L9.6681 29.0425L10.6978 21.5514L9.49648 20.8599L3.60409 25.4698L1.33514e-05 19.4193Z" fill="#302C2A"/>
<path d="M16.1334 17.863L24.8289 24.2592L28.2614 18.0935L21.2821 15.2699V13.8869L28.2614 11.0058L24.8289 4.89764L16.1334 11.2939V17.863Z" fill="#302C2A"/>
<path d="M15.5033 10.7756L16.6474 0L9.66809 0.115246L10.6978 7.60633L9.49646 8.29782L3.54687 3.68792L0 9.68078L9.83971 14.0602L15.5033 10.7756Z" fill="#302C2A"/>
<path d="M51.5452 13.2587V23.3539H55.3012V10.4884H49.8311V13.2587H51.5452Z" fill="#302C2A"/>
<path d="M51.4276 8.68076C51.772 9.04067 52.2964 9.22063 53.0007 9.22063C53.705 9.22063 54.2215 9.04067 54.55 8.68076C54.8944 8.30497 55.0664 7.83543 55.0664 7.27212C55.0664 6.69294 54.8944 6.22339 54.55 5.86348C54.2215 5.48788 53.705 5.29999 53.0007 5.29999C52.2964 5.29999 51.772 5.48788 51.4276 5.86348C51.0991 6.22339 50.9346 6.69294 50.9346 7.27212C50.9346 7.83543 51.0991 8.30497 51.4276 8.68076Z" fill="#302C2A"/>
<path d="M38.4686 23.0721C39.5328 23.5573 40.8398 23.8 42.389 23.8C43.8446 23.8 45.0967 23.573 46.1454 23.1191C47.1942 22.6653 48.0002 22.0313 48.5635 21.2175C49.1427 20.3879 49.4322 19.4253 49.4322 18.3297C49.4322 17.2655 49.1585 16.3655 48.6107 15.6298C48.0784 14.8786 47.3352 14.2917 46.3802 13.8692C45.4256 13.4309 44.3221 13.157 43.0699 13.0475L41.7554 12.9301C40.9728 12.8674 40.4092 12.6562 40.0648 12.2961C39.7207 11.9362 39.5483 11.5135 39.5483 11.0285C39.5483 10.6527 39.6425 10.3085 39.83 9.99546C40.0179 9.66673 40.2995 9.40852 40.6753 9.22063C41.0666 9.03292 41.5441 8.93898 42.1074 8.93898C42.7021 8.93898 43.1951 9.04842 43.5864 9.2677C43.6726 9.31401 43.7542 9.36353 43.8313 9.41608L43.8499 9.42913C43.8786 9.44897 43.9069 9.46958 43.9342 9.49037C44.172 9.67203 44.3614 9.88733 44.502 10.1363C44.7054 10.4807 44.8075 10.864 44.8075 11.2867H48.5635C48.5635 10.1597 48.3053 9.1815 47.7888 8.35204C47.2724 7.5069 46.5291 6.85739 45.5587 6.40335C44.6037 5.9338 43.4533 5.69903 42.1074 5.69903C40.8239 5.69903 39.7128 5.9183 38.7737 6.35647C37.8346 6.77914 37.0989 7.38951 36.567 8.18759C36.0502 8.98585 35.792 9.93289 35.792 11.0285C35.792 12.5466 36.3008 13.7673 37.3182 14.6909C38.3355 15.6143 39.6973 16.1464 41.4031 16.2873L42.6945 16.4047C43.7429 16.4986 44.502 16.7099 44.9716 17.0385C45.4411 17.3515 45.6759 17.7819 45.6759 18.3297C45.6759 18.5815 45.6347 18.8176 45.5522 19.0382C45.491 19.2019 45.4071 19.3571 45.3005 19.5036C45.0498 19.8323 44.682 20.0905 44.1969 20.2784C43.7119 20.4661 43.1092 20.5601 42.389 20.5601C41.591 20.5601 40.9415 20.4506 40.4405 20.2313C39.9396 19.9966 39.5642 19.6915 39.3136 19.3159C39.0788 18.9401 38.9616 18.5333 38.9616 18.0949H35.2286C35.2286 19.2062 35.5024 20.1922 36.0502 21.0531C36.598 21.8984 37.4044 22.5713 38.4686 23.0721Z" fill="#302C2A"/>
<path d="M63.6823 23.5182C62.3833 23.5182 61.3346 23.3617 60.5365 23.0486C59.7381 22.7199 59.1513 22.18 58.7755 21.4288C58.4156 20.6618 58.2357 19.6289 58.2357 18.3297V13.2352H56.2872V10.4884H58.2357V7.01391H61.7338V10.4884H65.4902V13.2352H61.7338V18.4707C61.7338 19.0811 61.8904 19.5507 62.2034 19.8792C62.5319 20.1922 62.9935 20.3487 63.5886 20.3487H65.4902V23.5182H63.6823Z" fill="#302C2A"/>
<path fill-rule="evenodd" clip-rule="evenodd" d="M70.0129 23.2365C70.8579 23.6121 71.8283 23.8 72.924 23.8C74.0037 23.8 74.9587 23.6121 75.7881 23.2365C76.6176 22.8609 77.3064 22.3366 77.8542 21.6636C78.402 20.9905 78.7698 20.2236 78.9574 19.3628H75.5065C75.3499 19.7541 75.0524 20.0828 74.6142 20.3487C74.1761 20.6149 73.6124 20.748 72.924 20.748C72.4975 20.748 72.116 20.6975 71.7803 20.5965C71.5248 20.5198 71.2957 20.4138 71.0926 20.2784C70.6231 19.9654 70.2787 19.527 70.0598 18.9637C69.9989 18.8032 69.9468 18.6354 69.9029 18.4605C69.8583 18.2834 69.8224 18.0991 69.7952 17.9072H79.1921V16.6394C79.1921 15.4656 78.9419 14.3856 78.4409 13.3997C77.94 12.3978 77.2122 11.5918 76.2577 10.9814C75.3186 10.3554 74.1602 10.0423 72.7829 10.0423C71.7342 10.0423 70.7951 10.2302 69.9657 10.6058C69.1521 10.9657 68.4712 11.4587 67.9234 12.0848C67.3756 12.7108 66.9529 13.4231 66.6554 14.2214C66.3737 15.0038 66.2331 15.8255 66.2331 16.6863V17.1559C66.2331 17.9855 66.3737 18.7993 66.6554 19.5975C66.9529 20.3801 67.3756 21.0922 67.9234 21.7339C68.4867 22.36 69.1831 22.8609 70.0129 23.2365ZM69.8598 15.5858C69.8704 15.5361 69.8813 15.4871 69.8934 15.4389C69.926 15.3062 69.9634 15.179 70.0061 15.0574C70.0303 14.9883 70.056 14.9208 70.0832 14.8552C70.318 14.276 70.6624 13.8378 71.1161 13.5405C71.2858 13.4293 71.4696 13.339 71.6673 13.2694C71.9992 13.1528 72.3712 13.0944 72.7829 13.0944C73.4249 13.0944 73.9568 13.2432 74.3795 13.5405C74.8176 13.8221 75.1465 14.2369 75.3654 14.7847C75.3832 14.8289 75.4002 14.8739 75.4165 14.9195C75.4422 14.992 75.4664 15.0665 75.4887 15.1429C75.522 15.2565 75.5511 15.3741 75.5764 15.4956C75.5949 15.5852 75.6112 15.6769 75.6252 15.7708H69.8239C69.8348 15.7081 69.8469 15.6465 69.8598 15.5858Z" fill="#302C2A"/>
<path d="M80.7422 23.3539V10.4884H83.7239V13.7288C83.7644 13.5361 83.8105 13.3513 83.8623 13.174C83.9061 13.0246 83.9538 12.8806 84.0056 12.7422C84.3345 11.8657 84.8274 11.2085 85.4845 10.7701C86.142 10.3162 86.948 10.0894 87.9029 10.0894H88.067C89.0375 10.0894 89.8435 10.3162 90.4855 10.7701C91.1425 11.2085 91.6359 11.8657 91.9644 12.7422L91.9901 12.8084L92.0124 12.8689C92.0272 12.8262 92.0427 12.784 92.0582 12.7422C92.4026 11.8657 92.9035 11.2085 93.5609 10.7701C94.218 10.3162 95.0244 10.0894 95.979 10.0894H96.1434C97.1135 10.0894 97.9275 10.3162 98.5849 10.7701C99.2579 11.2085 99.7668 11.8657 100.111 12.7422C100.455 13.6188 100.628 14.7144 100.628 16.0291V23.3539H96.8712V15.8177C96.8712 15.1134 96.6833 14.5422 96.3075 14.104C95.9476 13.6656 95.4312 13.4465 94.7582 13.4465C94.0853 13.4465 93.553 13.6736 93.1617 14.1274C92.7704 14.5656 92.5746 15.1525 92.5746 15.8882V23.3539H88.7948V15.8177C88.7948 15.1134 88.6073 14.5422 88.2315 14.104C87.8716 13.6656 87.3627 13.4465 86.7056 13.4465C86.0168 13.4465 85.477 13.6736 85.0857 14.1274C84.6944 14.5656 84.4985 15.1525 84.4985 15.8882V23.3539H80.7422Z" fill="#302C2A"/>
<path fill-rule="evenodd" clip-rule="evenodd" d="M110.662 20.875V23.3539H113.643V15.4656C113.643 14.276 113.408 13.3057 112.939 12.5543C112.469 11.7874 111.781 11.2162 110.873 10.8406C109.981 10.465 108.877 10.2771 107.563 10.2771C107.278 10.2771 106.98 10.2801 106.67 10.2864C106.487 10.2902 106.299 10.2949 106.107 10.3005C105.59 10.3162 105.089 10.3397 104.604 10.3711L104.234 10.396C104.043 10.4092 103.865 10.4223 103.696 10.4355C103.57 10.4453 103.45 10.4552 103.337 10.465V13.6344C103.822 13.6031 104.362 13.5717 104.957 13.5405C105.123 13.5318 105.288 13.5237 105.452 13.5161C105.688 13.5051 105.921 13.4957 106.152 13.4874C106.334 13.4808 106.515 13.4749 106.694 13.47C107.257 13.4543 107.711 13.4465 108.056 13.4465C108.744 13.4465 109.245 13.6108 109.558 13.9395C109.871 14.2683 110.028 14.7612 110.028 15.4187V15.4656H107.703C106.561 15.4656 105.551 15.6143 104.675 15.9117C103.798 16.1933 103.117 16.6394 102.632 17.2498C102.147 17.8447 101.905 18.6116 101.905 19.5507C101.905 20.4115 102.1 21.1549 102.491 21.781C102.883 22.3914 103.423 22.8609 104.111 23.1895C104.816 23.5182 105.63 23.6826 106.553 23.6826C107.445 23.6826 108.196 23.5182 108.807 23.1895C109.433 22.8609 109.918 22.3914 110.262 21.781C110.323 21.6782 110.38 21.5714 110.432 21.4606C110.507 21.3037 110.573 21.1389 110.632 20.9661L110.662 20.875ZM110.028 18.5881V17.5551H107.68C107.022 17.5551 106.514 17.7193 106.154 18.0481C105.81 18.3611 105.637 18.7915 105.637 19.3393C105.637 19.5972 105.68 19.8316 105.766 20.0427C105.852 20.2544 105.982 20.4425 106.154 20.6071C106.514 20.9202 107.022 21.0767 107.68 21.0767C107.805 21.0767 107.926 21.0704 108.043 21.0582C108.138 21.0481 108.231 21.034 108.32 21.0156C108.493 20.9807 108.655 20.9306 108.807 20.8653C109.151 20.7088 109.433 20.4506 109.652 20.0905C109.871 19.7306 109.996 19.2297 110.028 18.5881Z" fill="#302C2A"/>
<path d="M115.891 23.3539V10.4884H118.873V14.735C119.016 13.5227 119.375 12.5453 119.953 11.8031C120.735 10.8172 121.862 10.3242 123.333 10.3242H123.826V13.5639H122.887C121.854 13.5639 121.056 13.8456 120.493 14.4091C119.929 14.9569 119.647 15.7552 119.647 16.8037V23.3539H115.891Z" fill="#302C2A"/>
<path d="M128.59 17.3437H129.834L133.895 23.3539H138.121L132.971 15.9727L137.206 10.4884H133.262L128.59 16.6058V6.21564H124.833V23.3539H128.59V17.3437Z" fill="#302C2A"/>
</svg>
