<svg width="102" height="30" viewBox="0 0 102 30" fill="none" xmlns="http://www.w3.org/2000/svg">
<path d="M48.2011 17.5606V27.887H51.5563V16.8896C51.5563 15.4978 51.2581 14.2676 50.6616 13.1989C50.0651 12.1302 49.245 11.2976 48.2011 10.7012C47.1822 10.1047 46.0016 9.80647 44.6596 9.80647C43.3175 9.80647 42.1122 10.1171 41.0435 10.7385C40.2385 11.1878 39.5674 11.764 39.0304 12.4671V1.26947H35.6752V27.887H39.0304V17.5606C39.0304 16.6659 39.2292 15.8706 39.6269 15.1747C40.0245 14.4788 40.5713 13.9321 41.2672 13.5344C41.963 13.1368 42.7583 12.9379 43.653 12.9379C44.9951 12.9379 46.0886 13.3729 46.9336 14.2427C47.7786 15.1126 48.2011 16.2185 48.2011 17.5606Z" fill="#302C2A"/>
<path d="M57.4409 27.2905C58.609 27.9367 59.9262 28.2598 61.3925 28.2598C62.8837 28.2598 64.1885 27.9367 65.3069 27.2905C66.4501 26.6195 67.3448 25.6999 67.991 24.5319C68.6372 23.3638 68.9603 22.0093 68.9603 20.4684V10.1793H65.6051V20.3193C65.6051 21.7856 65.2323 22.9413 64.4867 23.7863C63.7411 24.6064 62.7097 25.0165 61.3925 25.0165C60.5227 25.0165 59.7647 24.8301 59.1185 24.4573C58.4723 24.0845 57.9752 23.5502 57.6273 22.8543C57.3042 22.1335 57.1427 21.2885 57.1427 20.3193V10.1793H53.7875V20.4684C53.7875 22.0093 54.1106 23.3638 54.7568 24.5319C55.403 25.6999 56.2977 26.6195 57.4409 27.2905Z" fill="#302C2A"/>
<path fill-rule="evenodd" clip-rule="evenodd" d="M79.7946 28.2598C78.03 28.2598 76.4395 27.8622 75.0228 27.0669C73.6062 26.2467 72.4878 25.1408 71.6677 23.749C70.8475 22.3572 70.4375 20.7791 70.4375 19.0145C70.4375 17.2748 70.8351 15.7091 71.6304 14.3173C72.4506 12.9255 73.5441 11.832 74.911 11.0367C76.3028 10.2165 77.8561 9.80647 79.5709 9.80647C81.2112 9.80647 82.6527 10.1793 83.8954 10.9249C85.1629 11.6704 86.1445 12.7018 86.8404 14.019C87.5612 15.3363 87.9215 16.8274 87.9215 18.4926C87.9215 18.7411 87.9091 19.0145 87.8843 19.3127C87.8594 19.5861 87.8097 19.9092 87.7351 20.282H73.8676C73.9857 20.9716 74.1968 21.6053 74.5009 22.1833C74.998 23.1028 75.7063 23.8236 76.6259 24.3455C77.5454 24.8425 78.6017 25.0911 79.7946 25.0911C80.7887 25.0911 81.6959 24.9171 82.516 24.5691C83.361 24.2212 84.0817 23.6993 84.6782 23.0034L86.8404 25.2029C85.9954 26.197 84.9516 26.955 83.709 27.4769C82.4912 27.9989 81.1864 28.2598 79.7946 28.2598ZM74.4636 15.7339C74.1851 16.2617 73.9887 16.8458 73.8744 17.486H84.6515C84.5599 16.7531 84.37 16.107 84.0817 15.5475C83.6592 14.7025 83.0628 14.0563 82.2923 13.609C81.5219 13.1368 80.5899 12.9007 79.4964 12.9007C78.3531 12.9007 77.3466 13.1492 76.4767 13.6463C75.6069 14.1433 74.9358 14.8392 74.4636 15.7339Z" fill="#302C2A"/>
<path d="M90.0887 26.7686C90.8343 27.2408 91.642 27.6136 92.5119 27.887C93.4066 28.1355 94.351 28.2598 95.3451 28.2598C97.3333 28.2598 98.9115 27.7752 100.08 26.8059C101.273 25.8366 101.869 24.5194 101.869 22.8543C101.869 21.7608 101.633 20.8785 101.161 20.2074C100.713 19.5364 100.129 19.0021 99.4086 18.6044C98.6878 18.2068 97.9298 17.8961 97.1345 17.6724C96.3392 17.4239 95.5688 17.1878 94.8232 16.9641C94.1024 16.7404 93.5184 16.4671 93.0711 16.144C92.6237 15.8209 92.4 15.3611 92.4 14.7646C92.4 14.1682 92.6486 13.7084 93.1456 13.3853C93.6675 13.0374 94.4131 12.8634 95.3824 12.8634C96.3019 12.8634 97.1221 13.0374 97.8428 13.3853C98.5884 13.7332 99.2097 14.2303 99.7068 14.8765L101.869 12.7143C101.173 11.745 100.278 11.0243 99.1849 10.5521C98.1162 10.055 96.886 9.80647 95.4942 9.80647C94.177 9.80647 93.0462 10.0177 92.1018 10.4402C91.1822 10.8627 90.4615 11.4716 89.9396 12.2669C89.4177 13.0374 89.1567 13.9569 89.1567 15.0256C89.1567 16.0943 89.3804 16.9517 89.8277 17.5979C90.2999 18.2441 90.8964 18.7535 91.6172 19.1263C92.3379 19.4991 93.0959 19.8098 93.8912 20.0583C94.7113 20.282 95.4818 20.5181 96.2025 20.7666C96.9233 20.9903 97.5073 21.2885 97.9547 21.6613C98.4269 22.0093 98.663 22.5063 98.663 23.1525C98.663 23.7987 98.3772 24.3082 97.8055 24.681C97.2339 25.0289 96.4262 25.2029 95.3824 25.2029C94.3386 25.2029 93.3941 25.0165 92.5491 24.6437C91.7041 24.246 90.9586 23.6496 90.3124 22.8543L88.1502 25.0165C88.6969 25.6875 89.3431 26.2716 90.0887 26.7686Z" fill="#302C2A"/>
<path d="M98.7284 4.23364V4.89431H97.933V6.90434H97.1781V4.89431H96.3827V4.23364H98.7284Z" fill="#302C2A"/>
<path d="M101.828 4.1936V6.91636H101.073V5.59502L100.52 6.21565H100.294L99.7409 5.59502V6.91636H98.986V4.1936H99.2524L100.407 5.35478L101.562 4.1936H101.828Z" fill="#302C2A"/>
<path d="M3.49866 8.57909C4.54348 11.9292 8.10624 13.7979 11.4563 12.7531C14.8064 11.7083 22.741 6.25373 21.6962 2.90366C20.6514 -0.446413 11.0228 -0.42338 7.67269 0.621438C4.32262 1.66626 2.45384 5.22902 3.49866 8.57909Z" fill="#302C2A"/>
<path d="M1.47474 26.9489C3.44106 28.9152 6.62875 28.9152 8.59507 26.9489C10.5614 24.9825 14.1214 18.2345 12.1554 16.2682C10.1891 14.302 3.44106 17.8622 1.47474 19.8284C-0.49158 21.7947 -0.49158 24.9825 1.47474 26.9489Z" fill="#302C2A"/>
<path d="M20.2898 28.882C23.6794 29.7902 27.1636 27.7787 28.072 24.389C28.98 20.9994 28.6132 11.3779 25.2235 10.4695C21.8338 9.56132 16.7053 17.7103 15.7969 21.1C14.8886 24.4895 16.9001 27.9737 20.2898 28.882Z" fill="#302C2A"/>
</svg>
