<svg width="100" height="28" viewBox="0 0 100 28" fill="none" xmlns="http://www.w3.org/2000/svg">
<path d="M34.7313 24.5483C32.8904 24.5483 31.3099 24.2229 29.9897 23.5721C28.6696 22.9213 27.5911 22.0754 26.7546 21.0341C25.9364 19.9929 25.3322 18.8587 24.9417 17.6315C24.5512 16.4043 24.356 15.2236 24.356 14.0894V13.4758C24.356 12.2114 24.5512 10.9656 24.9417 9.73847C25.3507 8.51127 25.9736 7.39565 26.8103 6.39161C27.6472 5.38753 28.7069 4.58801 29.9897 3.99302C31.2914 3.37944 32.8255 3.07263 34.5919 3.07263C36.4324 3.07263 38.0318 3.40733 39.3888 4.07668C40.7649 4.72747 41.8619 5.65716 42.68 6.86572C43.4981 8.05574 43.9909 9.45025 44.1583 11.0493H40.17C40.021 10.1196 39.6864 9.33871 39.166 8.7065C38.664 8.05574 38.0222 7.57229 37.2413 7.25619C36.4605 6.92153 35.5771 6.75419 34.5919 6.75419C33.5879 6.75419 32.6953 6.93083 31.9144 7.28411C31.1332 7.61877 30.4825 8.10222 29.9621 8.73439C29.4413 9.36659 29.0414 10.1103 28.7626 10.9656C28.5022 11.821 28.3724 12.7692 28.3724 13.8105C28.3724 14.8145 28.5022 15.7442 28.7626 16.5995C29.0414 17.4548 29.4505 18.2079 29.9897 18.8587C30.529 19.4908 31.1893 19.9836 31.9701 20.3368C32.7698 20.6901 33.69 20.8667 34.7313 20.8667C36.2558 20.8667 37.539 20.4949 38.5802 19.7511C39.6399 18.9888 40.2814 17.929 40.5045 16.5716H44.4929C44.307 18.0219 43.8142 19.3514 43.0145 20.56C42.2153 21.7685 41.1183 22.7354 39.7237 23.4606C38.3291 24.1857 36.6648 24.5483 34.7313 24.5483Z" fill="#302C2A"/>
<path d="M46.1337 24.0184V3.07263H50.0103V11.4466C50.3978 10.4924 50.9463 9.75568 51.6561 9.23643C52.4369 8.67862 53.4225 8.39973 54.6124 8.39973H54.7795C56.509 8.39973 57.8195 8.99472 58.7121 10.1847C59.6048 11.3747 60.0511 13.1039 60.0511 15.3723V24.0184H56.1741V15.0098C56.1741 14.0429 55.8953 13.2806 55.3376 12.7228C54.7983 12.1649 54.0824 11.886 53.1897 11.886C52.2414 11.886 51.4698 12.2021 50.8748 12.8343C50.2987 13.4479 50.0103 14.2567 50.0103 15.2608V24.0184H46.1337Z" fill="#302C2A"/>
<path fill-rule="evenodd" clip-rule="evenodd" d="M72.0004 21.1017V24.0183H75.0681V14.6192C75.0681 13.2061 74.7985 12.0626 74.2592 11.1886C73.7388 10.3148 72.9579 9.67327 71.9167 9.26421C70.8939 8.85516 69.6018 8.65063 68.0397 8.65063C67.5377 8.65063 66.9984 8.65993 66.4223 8.67852C65.8642 8.67852 65.3158 8.69711 64.7765 8.73429C64.2372 8.77151 63.7541 8.80869 63.3262 8.84587V12.137C63.847 12.0997 64.4327 12.0719 65.0834 12.0533C65.7528 12.0161 66.4127 11.9882 67.0637 11.9696C67.7144 11.951 68.2721 11.9417 68.7372 11.9417C69.6294 11.9417 70.2897 12.1555 70.7172 12.5832C71.145 13.0108 71.3586 13.6616 71.3586 14.5355V14.675H68.2629C66.9243 14.675 65.7528 14.8516 64.7488 15.2049C63.7633 15.5582 62.9916 16.0881 62.434 16.7946C61.8947 17.5012 61.6251 18.4123 61.6251 19.5279C61.6251 20.5506 61.8482 21.4245 62.2945 22.1496C62.7593 22.8748 63.4007 23.4326 64.2188 23.823C65.0557 24.2135 66.0225 24.4087 67.1194 24.4087C68.1791 24.4087 69.0717 24.2228 69.7969 23.8509C70.5405 23.4605 71.117 22.9027 71.5261 22.1775C71.7177 21.8525 71.876 21.4939 72.0004 21.1017ZM71.3586 18.4123V16.9899H68.2072C67.3145 16.9899 66.6266 17.213 66.1431 17.6593C65.6783 18.0869 65.446 18.6447 65.446 19.3327C65.446 20.0207 65.6783 20.5785 66.1431 21.0061C66.6266 21.4338 67.3145 21.6476 68.2072 21.6476C68.7464 21.6476 69.2392 21.5546 69.6855 21.3687C70.1503 21.1642 70.5313 20.8295 70.8289 20.3646C71.145 19.8812 71.3217 19.2304 71.3586 18.4123Z" fill="#302C2A"/>
<path d="M78.5514 24.0183V8.65063H82.4284V24.0183H78.5514Z" fill="#302C2A"/>
<path d="M85.5015 8.65066V24.0183H89.3785V15.1213C89.3785 14.1358 89.6666 13.3548 90.2431 12.7784C90.838 12.1835 91.6097 11.8859 92.558 11.8859C93.4879 11.8859 94.213 12.1742 94.7335 12.7506C95.2727 13.327 95.5423 14.08 95.5423 15.0097V24.0183H99.4189V15.3444C99.4189 13.0387 98.9542 11.3095 98.0247 10.1567C97.0948 8.98535 95.7282 8.39966 93.9246 8.39966H93.7575C92.5488 8.39966 91.5355 8.65995 90.7171 9.18058C89.9178 9.70121 89.3136 10.4821 88.9045 11.5234C88.7713 11.8566 88.6595 12.2174 88.5696 12.6058V8.65066H85.5015Z" fill="#302C2A"/>
<path d="M0 17.605C0 18.9658 1.10345 20.0695 2.46457 20.0695C3.8257 20.0695 4.92915 18.9658 4.92915 17.605C4.92915 16.6072 3.4824 15.6685 3.4824 13.9081C3.4824 12.3238 4.92915 11.2091 4.92915 10.2113C4.92915 8.85042 3.8257 7.7467 2.46457 7.7467C1.10345 7.7467 0 8.85042 0 10.2113C0 11.2091 1.44678 12.3238 1.44674 13.9081C1.44674 15.4925 0 16.6072 0 17.605Z" fill="#302C2A"/>
<path d="M11.9704 2.46445C11.9704 1.10355 13.0738 -0.00012207 14.4349 -0.00012207C15.7961 -0.00012207 16.8995 1.10355 16.8995 2.46445C16.8995 2.89298 16.6326 3.31063 16.3281 3.78717C15.9236 4.42011 15.4528 5.15698 15.4528 6.16129C15.4528 7.04461 15.9025 7.78199 16.3004 8.43447C16.6163 8.95226 16.8995 9.41662 16.8995 9.85813C16.8995 9.91728 16.8974 9.97597 16.8933 10.0341C16.8974 10.0923 16.8995 10.151 16.8995 10.2101C16.8995 10.6387 16.6326 11.0563 16.3281 11.5329C15.9236 12.1658 15.4528 12.9027 15.4528 13.907C15.4528 14.7903 15.9025 15.5277 16.3004 16.1802C16.6163 16.698 16.8995 17.1624 16.8995 17.6038C16.8995 17.663 16.8974 17.7217 16.8933 17.7799C16.8974 17.838 16.8995 17.8967 16.8995 17.9559C16.8995 18.3974 16.6163 18.8618 16.3004 19.3795C15.9025 20.032 15.4528 20.7694 15.4528 21.6527C15.4528 22.657 15.9236 23.3939 16.3281 24.0268C16.6326 24.5034 16.8995 24.921 16.8995 25.3496C16.8995 26.7105 15.7961 27.8143 14.4349 27.8143C13.0738 27.8143 11.9704 26.7105 11.9704 25.3496C11.9704 24.9081 12.2536 24.4437 12.5694 23.9259C12.9674 23.2734 13.4171 22.5361 13.4171 21.6527C13.4171 20.7694 12.9674 20.032 12.5694 19.3795C12.2536 18.8618 11.9704 18.3974 11.9704 17.9559C11.9704 17.8967 11.9725 17.838 11.9766 17.7799C11.9725 17.7217 11.9704 17.663 11.9704 17.6038C11.9704 17.1623 12.2536 16.698 12.5694 16.1802C12.9674 15.5277 13.4171 14.7903 13.4171 13.907C13.4171 13.0236 12.9674 12.2863 12.5694 11.6338C12.2536 11.116 11.9704 10.6516 11.9704 10.2101C11.9704 10.151 11.9725 10.0923 11.9766 10.0341C11.9725 9.97601 11.9704 9.91728 11.9704 9.85813C11.9704 9.41662 12.2536 8.95226 12.5694 8.43447C12.9674 7.78199 13.4171 7.04461 13.4171 6.16129C13.4171 5.27793 12.9674 4.5406 12.5694 3.88807C12.2536 3.37028 11.9704 2.90592 11.9704 2.46445Z" fill="#302C2A"/>
<path d="M8.44952 23.9419C7.08839 23.9419 5.98499 22.8382 5.98499 21.4773C5.98499 21.0358 6.26821 20.5714 6.58401 20.0536C6.982 19.4011 7.43173 18.6638 7.43173 17.7804C7.43173 16.8971 6.982 16.1597 6.58401 15.5073C6.26821 14.9894 5.98499 14.5251 5.98499 14.0836C5.98499 14.0244 5.98706 13.9657 5.99117 13.9076C5.98706 13.8494 5.98499 13.7907 5.98499 13.7315C5.98499 13.29 6.26821 12.8257 6.58401 12.3079C6.982 11.6554 7.43173 10.918 7.43173 10.0347C7.43173 9.15134 6.982 8.41397 6.58401 7.76148C6.26821 7.2437 5.98499 6.77933 5.98499 6.33786C5.98499 4.97697 7.08839 3.87329 8.44952 3.87329C9.81065 3.87329 10.9141 4.97697 10.9141 6.33786C10.9141 6.76639 10.6472 7.18405 10.3427 7.66058C9.9382 8.29352 9.46735 9.03039 9.46735 10.0347C9.46735 10.918 9.91708 11.6554 10.315 12.3079C10.6309 12.8257 10.9141 13.29 10.9141 13.7315C10.9141 13.7907 10.912 13.8494 10.9079 13.9075C10.912 13.9657 10.9141 14.0244 10.9141 14.0836C10.9141 14.5251 10.6309 14.9895 10.315 15.5073C9.91708 16.1597 9.46735 16.8971 9.46735 17.7804C9.46735 18.7847 9.9382 19.5216 10.3427 20.1546C10.6472 20.6311 10.9141 21.0487 10.9141 21.4773C10.9141 22.8382 9.81065 23.9419 8.44952 23.9419Z" fill="#302C2A"/>
</svg>
