<svg width="111" height="26" viewBox="0 0 111 26" fill="none" xmlns="http://www.w3.org/2000/svg">
<path d="M48.2125 3.7502C48.597 4.15405 49.1837 4.35599 49.9721 4.35599C50.7604 4.35599 51.3375 4.15405 51.7028 3.7502C52.0685 3.3271 52.251 2.80785 52.251 2.19243C52.251 1.53852 52.0685 1.00968 51.7028 0.605793C51.3375 0.201942 50.7604 0 49.9721 0C49.1837 0 48.597 0.201942 48.2125 0.605793C47.8468 1.00968 47.6643 1.53852 47.6643 2.19243C47.6643 2.80785 47.8468 3.3271 48.2125 3.7502Z" fill="#302C2A"/>
<path d="M29.8995 6.23108L34.8037 21.8954H41.2366L45.4772 6.23108H41.6119L38.4209 18.6068H37.7397L34.0249 6.23108H29.8995Z" fill="#302C2A"/>
<path d="M61.3724 22.3859C59.2186 22.3859 57.526 21.9339 56.2953 21.0297C55.0838 20.1066 54.4491 18.8374 54.3913 17.2222H57.9972C58.0549 17.7604 58.3532 18.2508 58.8914 18.6931C59.4299 19.1354 60.2764 19.3567 61.4301 19.3567C62.3917 19.3567 63.1512 19.1835 63.709 18.8374C64.286 18.4914 64.5744 18.0202 64.5744 17.4239C64.5744 16.9047 64.3534 16.4912 63.9111 16.1835C63.488 15.8758 62.757 15.6739 61.7184 15.5777L60.3338 15.4335C58.5838 15.2411 57.2376 14.7411 56.2953 13.9334C55.3529 13.1257 54.8817 12.0487 54.8817 10.7024C54.8817 9.62548 55.1508 8.72158 55.6894 7.99079C56.2279 7.25997 56.9685 6.71188 57.9109 6.34649C58.8721 5.96185 59.9685 5.76953 61.1995 5.76953C63.1223 5.76953 64.6802 6.19263 65.8728 7.03882C67.065 7.88501 67.6901 9.12547 67.7479 10.7601H64.1417C64.1032 10.2217 63.8341 9.76009 63.3341 9.37545C62.834 8.99085 62.113 8.79853 61.1706 8.79853C60.3242 8.79853 59.6705 8.96198 59.2089 9.28892C58.7474 9.61585 58.5164 10.039 58.5164 10.5582C58.5164 11.0583 58.6993 11.4429 59.0646 11.7121C59.4492 11.9814 60.0647 12.1641 60.9108 12.2602L62.2955 12.4045C64.1417 12.5968 65.5841 13.1064 66.6227 13.9334C67.6805 14.7603 68.2094 15.8758 68.2094 17.2796C68.2094 18.3181 67.9207 19.222 67.344 19.9915C66.7863 20.7414 65.9975 21.328 64.9785 21.7511C63.9592 22.1742 62.757 22.3859 61.3724 22.3859Z" fill="#302C2A"/>
<path d="M70.5409 3.7502C70.9258 4.15405 71.5121 4.35599 72.3009 4.35599C73.0892 4.35599 73.6663 4.15405 74.0316 3.7502C74.3969 3.3271 74.5798 2.80785 74.5798 2.19243C74.5798 1.53852 74.3969 1.00968 74.0316 0.605793C73.6663 0.201942 73.0892 0 72.3009 0C71.5121 0 70.9258 0.201942 70.5409 0.605793C70.1756 1.00968 69.9931 1.53852 69.9931 2.19243C69.9931 2.80785 70.1756 3.3271 70.5409 3.7502Z" fill="#302C2A"/>
<path fill-rule="evenodd" clip-rule="evenodd" d="M85.5474 22.4433C84.1628 22.4433 82.9417 22.2223 81.8839 21.78C80.826 21.3377 79.9318 20.7414 79.2008 19.9915C78.4702 19.222 77.9124 18.3566 77.5278 17.395C77.1625 16.4335 76.9797 15.4334 76.9797 14.3949V13.7891C76.9797 12.7122 77.1721 11.6929 77.5567 10.7313C77.9605 9.7505 78.5279 8.88506 79.2586 8.13502C80.0088 7.36574 80.9127 6.76957 81.9705 6.34648C83.028 5.90414 84.2205 5.68298 85.5474 5.68298C86.8744 5.68298 88.0669 5.90414 89.1244 6.34648C90.1822 6.76957 91.0764 7.36574 91.8074 8.13502C92.5573 8.88506 93.1247 9.7505 93.5093 10.7313C93.8939 11.6929 94.0863 12.7122 94.0863 13.7891V14.3949C94.0863 15.4334 93.8939 16.4335 93.5093 17.395C93.144 18.3566 92.5958 19.222 91.8652 19.9915C91.1342 20.7414 90.24 21.3377 89.1821 21.78C88.1246 22.2223 86.9128 22.4433 85.5474 22.4433ZM85.5474 19.0106C86.5283 19.0106 87.3552 18.7989 88.0284 18.3759C88.7013 17.9336 89.211 17.3469 89.5574 16.6162C89.9035 15.8662 90.0764 15.02 90.0764 14.0776C90.0764 13.116 89.8939 12.2698 89.5285 11.539C89.1821 10.789 88.6628 10.2024 87.9707 9.77933C87.2974 9.33699 86.4898 9.11583 85.5474 9.11583C84.6051 9.11583 83.7878 9.33699 83.0953 9.77933C82.4224 10.2024 81.9031 10.789 81.5374 11.539C81.1721 12.2698 80.9896 13.116 80.9896 14.0776C80.9896 15.02 81.1625 15.8662 81.5089 16.6162C81.8743 17.3469 82.3935 17.9336 83.0665 18.3759C83.7397 18.7989 84.5666 19.0106 85.5474 19.0106Z" fill="#302C2A"/>
<path d="M99.6744 8.97167C99.5366 9.31627 99.4211 9.68946 99.3284 10.0913V6.23115H96.1549V21.8955H100.165V12.693C100.165 11.6737 100.463 10.866 101.059 10.2698C101.675 9.65441 102.473 9.34668 103.453 9.34668C104.415 9.34668 105.165 9.64479 105.703 10.241C106.261 10.8372 106.54 11.616 106.54 12.5776V21.8955H110.55V12.9238C110.55 10.5391 110.069 8.75051 109.108 7.55814C108.146 6.34655 106.732 5.74072 104.867 5.74072H104.694C103.444 5.74072 102.396 6.00999 101.55 6.54846C100.723 7.08696 100.097 7.8947 99.6744 8.97167Z" fill="#302C2A"/>
<path d="M48.5008 9.23124V21.8954H52.5108V6.23108H46.3085V9.23124H48.5008Z" fill="#302C2A"/>
<path d="M70.8296 9.23124V21.8954H74.8392V6.23108H68.637V9.23124H70.8296Z" fill="#302C2A"/>
<path fill-rule="evenodd" clip-rule="evenodd" d="M12.5573 25.1146C19.4924 25.1146 25.1145 19.4925 25.1145 12.5573C25.1145 5.62208 19.4924 0 12.5573 0C5.62209 0 0 5.62208 0 12.5573C0 19.4925 5.62209 25.1146 12.5573 25.1146ZM21.7988 11.2542C20.6279 12.6235 18.9786 13.4762 17.1513 13.4762C13.599 13.4762 10.7194 10.2537 10.7194 6.27867C10.7194 5.27862 10.9016 4.3262 11.231 3.46072C6.77985 4.13676 3.36893 7.9801 3.36893 12.6201C3.36893 13.9739 3.6593 15.2599 4.18117 16.4191C4.71056 15.9267 5.45454 15.6202 6.27857 15.6202C7.88548 15.6202 9.18818 16.7857 9.18818 18.2236C9.18818 19.189 8.60081 20.0317 7.72836 20.4812C9.15092 21.3706 10.8323 21.8848 12.6338 21.8848C17.7506 21.8848 21.8988 17.737 21.8988 12.6201C21.8988 12.156 21.8644 11.7 21.7988 11.2542Z" fill="#302C2A"/>
<mask id="mask0_36_468" style="mask-type:luminance" maskUnits="userSpaceOnUse" x="0" y="0" width="26" height="26">
<path fill-rule="evenodd" clip-rule="evenodd" d="M12.5573 25.1146C19.4924 25.1146 25.1145 19.4925 25.1145 12.5573C25.1145 5.62208 19.4924 0 12.5573 0C5.62209 0 0 5.62208 0 12.5573C0 19.4925 5.62209 25.1146 12.5573 25.1146ZM21.7988 11.2542C20.6279 12.6235 18.9786 13.4762 17.1513 13.4762C13.599 13.4762 10.7194 10.2537 10.7194 6.27867C10.7194 5.27862 10.9016 4.3262 11.231 3.46072C6.77985 4.13676 3.36893 7.9801 3.36893 12.6201C3.36893 13.9739 3.6593 15.2599 4.18117 16.4191C4.71056 15.9267 5.45454 15.6202 6.27857 15.6202C7.88548 15.6202 9.18818 16.7857 9.18818 18.2236C9.18818 19.189 8.60081 20.0317 7.72836 20.4812C9.15092 21.3706 10.8323 21.8848 12.6338 21.8848C17.7506 21.8848 21.8988 17.737 21.8988 12.6201C21.8988 12.156 21.8644 11.7 21.7988 11.2542Z" fill="white"/>
</mask>
<g mask="url(#mask0_36_468)">
<path d="M21.7988 11.2542L22.7074 11.1199L22.4126 9.12263L21.1004 10.6571L21.7988 11.2542ZM11.231 3.46071L12.0898 3.78754L12.6499 2.31587L11.0931 2.55231L11.231 3.46071ZM4.18117 16.4191L3.34333 16.7963L3.86915 17.9645L4.80703 17.0919L4.18117 16.4191ZM7.72836 20.4812L7.30753 19.6643L5.87194 20.4039L7.2412 21.2603L7.72836 20.4812ZM24.1959 12.5573C24.1959 18.9852 18.9851 24.1956 12.5573 24.1956V26.0333C20 26.0333 26.0335 20.0001 26.0335 12.5573H24.1959ZM12.5573 0.918799C18.9851 0.918799 24.1959 6.12954 24.1959 12.5573H26.0335C26.0335 5.11464 20 -0.918823 12.5573 -0.918823V0.918799ZM0.918847 12.5573C0.918847 6.12954 6.12956 0.918799 12.5573 0.918799V-0.918823C5.11465 -0.918823 -0.918809 5.11464 -0.918809 12.5573H0.918847ZM12.5573 24.1956C6.12956 24.1956 0.918847 18.9852 0.918847 12.5573H-0.918809C-0.918809 20.0001 5.11465 26.0333 12.5573 26.0333V24.1956ZM17.1513 14.395C19.2769 14.395 21.1719 13.401 22.4971 11.8514L21.1004 10.6571C20.0838 11.8459 18.6803 12.5573 17.1513 12.5573V14.395ZM9.80054 6.27866C9.80054 10.6613 12.9971 14.395 17.1513 14.395V12.5573C14.2009 12.5573 11.6382 9.8462 11.6382 6.27866H9.80054ZM10.3723 3.13388C10.0033 4.10352 9.80054 5.16671 9.80054 6.27866H11.6382C11.6382 5.39051 11.8 4.54882 12.0898 3.78754L10.3723 3.13388ZM4.28777 12.6201C4.28777 8.44109 7.36004 4.97799 11.369 4.36914L11.0931 2.55231C6.19963 3.29554 2.45012 7.51908 2.45012 12.6201H4.28777ZM5.01901 16.042C4.54948 14.9989 4.28777 13.8413 4.28777 12.6201H2.45012C2.45012 14.1064 2.76915 15.5208 3.34333 16.7963L5.01901 16.042ZM6.27857 14.7013C5.22714 14.7013 4.25822 15.0925 3.5553 15.7464L4.80703 17.0919C5.16291 16.7608 5.68199 16.539 6.27857 16.539V14.7013ZM10.107 18.2236C10.107 16.1848 8.29418 14.7013 6.27857 14.7013V16.539C7.47682 16.539 8.26937 17.3868 8.26937 18.2236H10.107ZM8.14915 21.2981C9.28011 20.7152 10.107 19.5832 10.107 18.2236H8.26937C8.26937 18.7948 7.9215 19.3481 7.30753 19.6643L8.14915 21.2981ZM12.6338 20.9661C11.0095 20.9661 9.49628 20.5029 8.21552 19.7021L7.2412 21.2603C8.80557 22.2384 10.655 22.8038 12.6338 22.8038V20.9661ZM20.9798 12.6201C20.9798 17.2294 17.243 20.9661 12.6338 20.9661V22.8038C18.2579 22.8038 22.8174 18.2442 22.8174 12.6201H20.9798ZM20.8897 11.3885C20.9489 11.7899 20.9798 12.2011 20.9798 12.6201H22.8174C22.8174 12.1109 22.78 11.61 22.7074 11.1199L20.8897 11.3885Z" fill="#302C2A"/>
</g>
</svg>
