<svg width="113" height="29" viewBox="0 0 113 29" fill="none" xmlns="http://www.w3.org/2000/svg">
<path d="M8.30582 21.2479H21.9513V26.5875C21.9513 27.8981 20.8888 28.9605 19.5782 28.9605H10.6789C9.3683 28.9605 8.30582 27.8981 8.30582 26.5875V21.2479Z" fill="#302C2A"/>
<path fill-rule="evenodd" clip-rule="evenodd" d="M11.8579 0.298359C8.60876 0.959765 5.74578 2.68344 3.64733 5.09087C3.64726 5.09084 3.6474 5.09094 3.64733 5.09087C1.37591 7.69674 0 11.1037 0 14.832V15.3495C0.000143511 15.3493 0.000251631 15.3491 0.000359265 15.3489V15.8928C0.000359265 16.0096 0.000359162 16.068 0.00154313 16.1174C0.0542834 18.3336 1.83834 20.1177 4.05451 20.1704C4.10391 20.1716 4.16236 20.1716 4.27917 20.1716H25.3857C25.5025 20.1716 25.5609 20.1716 25.6103 20.1704C27.8265 20.1177 29.6105 18.3336 29.6632 16.1174C29.6643 16.068 29.6643 16.0096 29.6643 15.8928V14.832C29.6643 6.64054 23.0239 0 14.8324 0C13.8138 0 12.8188 0.102754 11.8579 0.298359ZM11.7843 1.52828C11.3422 4.0314 9.15632 5.93278 6.52638 5.93278C5.90537 5.93278 5.30915 5.82676 4.7548 5.63187C6.59497 3.61734 9.03114 2.15647 11.7843 1.52828ZM19.1415 1.88093C19.7177 4.20781 21.8198 5.93278 24.3247 5.93278C24.5968 5.93278 24.8642 5.91244 25.1253 5.87315C23.5407 4.05422 21.4819 2.65922 19.1415 1.88093ZM28.4383 13.7839C27.4984 12.959 26.2663 12.4588 24.9175 12.4588C21.9686 12.4588 19.578 14.8494 19.578 17.7984C19.578 18.2062 19.6237 18.6034 19.7103 18.985H25.3857C25.5093 18.985 25.5503 18.9849 25.5821 18.9842C27.165 18.9465 28.4394 17.6722 28.4771 16.0892C28.4778 16.0575 28.4778 16.0164 28.4778 15.8928V14.832C28.4778 14.4794 28.4645 14.1298 28.4383 13.7839ZM9.95335 18.985C10.04 18.6034 10.0857 18.2062 10.0857 17.7984C10.0857 14.8494 7.69509 12.4588 4.74616 12.4588C3.39791 12.4588 2.16637 12.9585 1.22666 13.7828C1.20033 14.1291 1.18694 14.479 1.18694 14.832V15.8928C1.18694 16.0164 1.18702 16.0575 1.18777 16.0892C1.22544 17.6722 2.49978 18.9465 4.08274 18.9842C4.11449 18.9849 4.1555 18.985 4.27917 18.985H9.95335ZM20.1717 10.0858C20.1717 13.0347 17.7811 15.4253 14.8321 15.4253C11.8832 15.4253 9.49264 13.0347 9.49264 10.0858C9.49264 7.1368 11.8832 4.74623 14.8321 4.74623C17.7811 4.74623 20.1717 7.1368 20.1717 10.0858Z" fill="#302C2A"/>
<path d="M38.5318 22.2443V4.76843H41.6385V22.2443H38.5318Z" fill="#302C2A"/>
<path d="M49.449 22.5354C48.2353 22.5354 47.1593 22.2765 46.2207 21.7587C45.2822 21.2409 44.546 20.5127 44.0121 19.5742C43.4783 18.6357 43.211 17.5516 43.211 16.3218C43.211 15.0758 43.47 13.9674 43.9877 12.9965C44.5219 12.0256 45.2499 11.2732 46.1723 10.7392C47.1109 10.1891 48.2112 9.91394 49.4734 9.91394C50.6545 9.91394 51.6982 10.1729 52.6045 10.6907C53.5104 11.2085 54.2143 11.9204 54.7162 12.8266C55.234 13.7166 55.4926 14.7117 55.4926 15.8121C55.4926 15.99 55.4847 16.1761 55.4686 16.3703C55.4686 16.5645 55.4603 16.7668 55.4442 16.9771H46.2936C46.3585 17.9156 46.6821 18.6519 47.2644 19.1859C47.8632 19.7198 48.5833 19.9868 49.4246 19.9868C50.0557 19.9868 50.5817 19.8493 51.0025 19.5742C51.4392 19.2829 51.7631 18.9108 51.9734 18.4577H55.1288C54.9021 19.2182 54.5218 19.914 53.9879 20.5451C53.4702 21.16 52.823 21.6454 52.0462 22.0014C51.2856 22.3574 50.4199 22.5354 49.449 22.5354ZM49.4734 12.4383C48.7128 12.4383 48.0412 12.6567 47.4589 13.0936C46.8762 13.5143 46.5042 14.1615 46.3424 15.0353H52.3375C52.2887 14.2425 51.9974 13.6114 51.4636 13.1421C50.9297 12.6729 50.2663 12.4383 49.4734 12.4383Z" fill="#302C2A"/>
<path d="M59.6706 22.2442L55.253 10.2053H58.5056L61.5639 19.3073L64.6221 10.2053H67.8744L63.4327 22.2442H59.6706Z" fill="#302C2A"/>
<path d="M73.8775 22.5354C72.6637 22.5354 71.5878 22.2765 70.6492 21.7587C69.7106 21.2409 68.9744 20.5127 68.4406 19.5742C67.9067 18.6357 67.6394 17.5516 67.6394 16.3218C67.6394 15.0758 67.8984 13.9674 68.4162 12.9965C68.9504 12.0256 69.6783 11.2732 70.6008 10.7392C71.5393 10.1891 72.6397 9.91394 73.9019 9.91394C75.083 9.91394 76.1266 10.1729 77.0329 10.6907C77.9388 11.2085 78.6428 11.9204 79.1447 12.8266C79.6624 13.7166 79.9211 14.7117 79.9211 15.8121C79.9211 15.99 79.9132 16.1761 79.897 16.3703C79.897 16.5645 79.8888 16.7668 79.8726 16.9771H70.722C70.787 17.9156 71.1106 18.6519 71.6929 19.1859C72.2917 19.7198 73.0117 19.9868 73.8531 19.9868C74.4842 19.9868 75.0101 19.8493 75.431 19.5742C75.868 19.2829 76.1916 18.9108 76.4018 18.4577H79.5573C79.3305 19.2182 78.9502 19.914 78.4164 20.5451C77.8986 21.16 77.2514 21.6454 76.4747 22.0014C75.7141 22.3574 74.8483 22.5354 73.8775 22.5354ZM73.9019 12.4383C73.1413 12.4383 72.4696 12.6567 71.8873 13.0936C71.3047 13.5143 70.9326 14.1615 70.7708 15.0353H76.766C76.7172 14.2425 76.4262 13.6114 75.892 13.1421C75.3581 12.6729 74.6948 12.4383 73.9019 12.4383Z" fill="#302C2A"/>
<path d="M81.3206 22.2443V4.76843H84.4273V22.2443H81.3206Z" fill="#302C2A"/>
<path d="M90.9029 22.5355C89.3982 22.5355 88.2332 22.0662 87.4077 21.1277C86.5986 20.1892 86.1943 18.8138 86.1943 17.0015V10.2053H89.2769V16.7102C89.2769 17.7458 89.4871 18.5387 89.9076 19.0889C90.3285 19.639 90.9919 19.9141 91.8981 19.9141C92.7556 19.9141 93.4595 19.6067 94.0099 18.9918C94.576 18.3769 94.8591 17.5193 94.8591 16.419V10.2053H97.9661V22.2442H95.2233L94.9807 20.2054C94.6083 20.9174 94.0666 21.4837 93.3544 21.9044C92.6587 22.3251 91.8414 22.5355 90.9029 22.5355Z" fill="#302C2A"/>
<path d="M99.9419 27.584V10.2052H102.709L103.049 11.9285C103.437 11.3945 103.947 10.9253 104.578 10.5207C105.225 10.1162 106.058 9.91394 107.078 9.91394C108.21 9.91394 109.222 10.1891 110.112 10.7392C111.002 11.2894 111.706 12.0418 112.224 12.9965C112.741 13.9512 113 15.0353 113 16.2489C113 17.4625 112.741 18.5467 112.224 19.5014C111.706 20.4399 111.002 21.1842 110.112 21.7344C109.222 22.2684 108.21 22.5354 107.078 22.5354C106.172 22.5354 105.379 22.3655 104.699 22.0257C104.019 21.6859 103.469 21.2085 103.049 20.5936V27.584H99.9419ZM106.423 19.8169C107.409 19.8169 108.227 19.4852 108.874 18.8218C109.521 18.1584 109.845 17.3007 109.845 16.2489C109.845 15.1972 109.521 14.3315 108.874 13.6519C108.227 12.9722 107.409 12.6324 106.423 12.6324C105.419 12.6324 104.594 12.9722 103.947 13.6519C103.315 14.3153 103 15.1729 103 16.2247C103 17.2765 103.315 18.1422 103.947 18.8218C104.594 19.4852 105.419 19.8169 106.423 19.8169Z" fill="#302C2A"/>
</svg>
