<svg width="124" height="28" viewBox="0 0 124 28" fill="none" xmlns="http://www.w3.org/2000/svg">
<path d="M42.2066 26.0807C39.3525 26.0807 37.1267 25.291 35.5285 23.7121C33.9495 22.1327 33.1599 19.8785 33.1599 16.9484V5.76135H37.7831V16.7772C37.7831 20.354 39.2672 22.1423 42.2351 22.1423C43.6812 22.1423 44.7846 21.7144 45.5455 20.8583C46.3064 19.983 46.687 18.6226 46.687 16.7772V5.76135H51.2531V16.9484C51.2531 19.8785 50.4542 22.1327 48.856 23.7121C47.277 25.291 45.0604 26.0807 42.2066 26.0807Z" fill="#302C2A"/>
<path d="M53.5099 15.921H61.5865V19.4883H53.5099V15.921Z" fill="#302C2A"/>
<path d="M67.0832 9.5284H60.6905V5.76135H78.0992V9.5284H71.7065V25.7381H67.0832V9.5284Z" fill="#302C2A"/>
<path d="M93.9789 10.3845V25.7381H89.7555V23.9117C89.1656 24.5777 88.4615 25.0913 87.6434 25.4527C86.8253 25.7953 85.9408 25.9666 84.9894 25.9666C82.9729 25.9666 81.3747 25.3862 80.1952 24.2255C79.0157 23.0652 78.4257 21.3433 78.4257 19.0602V10.3845H82.8777V18.4038C82.8777 20.8771 83.9147 22.1138 85.9884 22.1138C87.0539 22.1138 87.91 21.7712 88.5568 21.0864C89.2036 20.3824 89.527 19.3457 89.527 17.9757V10.3845H93.9789Z" fill="#302C2A"/>
<path d="M100.929 12.4108C101.462 11.6688 102.175 11.1075 103.069 10.727C103.982 10.3465 105.029 10.1562 106.208 10.1562V14.2658C105.714 14.2277 105.381 14.2087 105.21 14.2087C103.935 14.2087 102.936 14.5702 102.213 15.2932C101.49 15.9971 101.129 17.0625 101.129 18.4894V25.7381H96.6768V10.3846H100.929V12.4108Z" fill="#302C2A"/>
<path d="M116.761 10.1562C118.663 10.1562 120.195 10.727 121.355 11.8685C122.535 13.0101 123.125 14.7033 123.125 16.9484V25.7381H118.673V17.6333C118.673 16.4156 118.406 15.5119 117.874 14.9222C117.341 14.3133 116.571 14.0089 115.562 14.0089C114.44 14.0089 113.545 14.3609 112.879 15.0648C112.213 15.7498 111.88 16.7771 111.88 18.147V25.7381H107.428V10.3846H111.681V12.1825C112.271 11.5356 113.003 11.0409 113.878 10.6985C114.753 10.337 115.714 10.1562 116.761 10.1562Z" fill="#302C2A"/>
<path fill-rule="evenodd" clip-rule="evenodd" d="M13.2708 0.569419C14.03 -0.189806 15.2609 -0.189806 16.0202 0.569419L23.1297 7.67911L15.9878 14.4965C15.2112 15.2379 13.9806 15.2093 13.2392 14.4326C12.4979 13.6559 12.5265 12.4253 13.3031 11.684L15.4959 9.59086H10.7573C6.96358 9.59086 3.88815 12.6663 3.88815 16.46C3.88815 20.2537 6.96358 23.3291 10.7573 23.3291H20.3482C21.4217 23.3291 22.2924 24.1994 22.2924 25.2733C22.2924 26.3469 21.4217 27.2172 20.3482 27.2172H10.7573C4.81619 27.2172 0 22.4011 0 16.46C0 10.5189 4.81619 5.70267 10.7573 5.70267H15.6547L13.2708 3.31879C12.5116 2.55957 12.5116 1.32864 13.2708 0.569419Z" fill="#302C2A"/>
</svg>
