<svg width="143" height="29" viewBox="0 0 143 29" fill="none" xmlns="http://www.w3.org/2000/svg">
<path d="M17.4169 3.11017H7.4644V0H17.4169C20.8523 0 23.6373 2.78494 23.6373 6.22033V16.1729H20.5271V6.22033C20.5271 4.50264 19.1346 3.11017 17.4169 3.11017Z" fill="#302C2A"/>
<path d="M6.22033 20.5271H16.1729V23.6373H6.22033C2.78494 23.6373 -3.00332e-07 20.8523 0 17.4169L6.42635e-07 7.4644H3.11017L3.11017 17.4169C3.11017 19.1346 4.50264 20.5271 6.22033 20.5271Z" fill="#302C2A"/>
<path fill-rule="evenodd" clip-rule="evenodd" d="M18.039 11.8186C18.039 15.254 15.254 18.039 11.8186 18.039C8.38324 18.039 5.5983 15.254 5.5983 11.8186C5.5983 8.38324 8.38324 5.5983 11.8186 5.5983C15.254 5.5983 18.039 8.38324 18.039 11.8186ZM14.9288 11.8186C14.9288 13.5363 13.5363 14.9288 11.8186 14.9288C10.1009 14.9288 8.70847 13.5363 8.70847 11.8186C8.70847 10.1009 10.1009 8.70847 11.8186 8.70847C13.5363 8.70847 14.9288 10.1009 14.9288 11.8186Z" fill="#302C2A"/>
<path d="M36.9097 21.6565C35.7316 21.6565 34.6714 21.4546 33.7289 21.0507C32.7865 20.6299 32.046 20.0409 31.5074 19.2836C30.9689 18.5263 30.6996 17.6427 30.6996 16.633H33.7794C33.8467 17.3903 34.1412 18.013 34.6629 18.501C35.2015 18.9891 35.9504 19.2331 36.9097 19.2331C37.9026 19.2331 38.6767 18.9975 39.2321 18.5263C39.7875 18.0382 40.0652 17.4155 40.0652 16.6582C40.0652 16.0692 39.8885 15.5895 39.535 15.2193C39.1985 14.849 38.7693 14.5629 38.2476 14.361C37.7427 14.159 37.0359 13.9402 36.1271 13.7046C34.9827 13.4017 34.0487 13.0988 33.325 12.7959C32.6182 12.4761 32.0123 11.988 31.5074 11.3317C31.0025 10.6753 30.7501 9.80022 30.7501 8.70631C30.7501 7.69655 31.0025 6.813 31.5074 6.05568C32.0123 5.29836 32.7191 4.71775 33.6279 4.31384C34.5367 3.90993 35.5886 3.70798 36.7834 3.70798C38.4832 3.70798 39.8716 4.13713 40.9487 4.99543C42.0426 5.8369 42.6485 6.99813 42.7663 8.47911H39.5855C39.535 7.8396 39.2321 7.29264 38.6767 6.83825C38.1214 6.38385 37.3893 6.15666 36.4805 6.15666C35.6559 6.15666 34.9827 6.36702 34.461 6.78776C33.9393 7.20849 33.6784 7.81435 33.6784 8.60533C33.6784 9.14387 33.8383 9.58985 34.1581 9.94327C34.4946 10.2799 34.9154 10.5491 35.4203 10.7511C35.9251 10.953 36.6151 11.1718 37.4903 11.4074C38.6515 11.7272 39.5939 12.0469 40.3176 12.3667C41.0581 12.6865 41.6808 13.1829 42.1857 13.8561C42.7074 14.5124 42.9682 15.396 42.9682 16.5067C42.9682 17.3987 42.7242 18.2402 42.2362 19.0311C41.7649 19.8221 41.0665 20.4616 40.1409 20.9497C39.2321 21.4209 38.155 21.6565 36.9097 21.6565Z" fill="#302C2A"/>
<path d="M52.1196 7.34313C53.2135 7.34313 54.1896 7.57033 55.0479 8.02472C55.9231 8.47911 56.6046 9.15229 57.0927 10.0442C57.5808 10.9362 57.8248 12.0133 57.8248 13.2755V21.4798H54.9722V13.7046C54.9722 12.4593 54.6609 11.5084 54.0382 10.8521C53.4155 10.1789 52.5656 9.84229 51.4885 9.84229C50.4114 9.84229 49.5531 10.1789 48.9136 10.8521C48.2909 11.5084 47.9796 12.4593 47.9796 13.7046V21.4798H45.1018V7.57033H47.9796V9.1607C48.4508 8.5885 49.0483 8.14253 49.7719 7.82277C50.5124 7.50301 51.295 7.34313 52.1196 7.34313Z" fill="#302C2A"/>
<path d="M59.2741 14.462C59.2741 13.0651 59.5602 11.8282 60.1324 10.7511C60.7215 9.674 61.5125 8.84095 62.5054 8.25192C63.5152 7.64606 64.6259 7.34313 65.8376 7.34313C66.9315 7.34313 67.8824 7.56191 68.6902 7.99948C69.5148 8.42021 70.1712 8.95034 70.6592 9.58985V7.57033H73.5623V21.4798H70.6592V19.4098C70.1712 20.0661 69.5064 20.6131 68.6649 21.0507C67.8235 21.4882 66.8642 21.707 65.7871 21.707C64.5922 21.707 63.4983 21.4041 62.5054 20.7982C61.5125 20.1755 60.7215 19.3172 60.1324 18.2233C59.5602 17.1126 59.2741 15.8588 59.2741 14.462ZM70.6592 14.5124C70.6592 13.5532 70.4573 12.7201 70.0534 12.0133C69.6663 11.3065 69.153 10.7679 68.5135 10.3977C67.874 10.0274 67.184 9.84229 66.4435 9.84229C65.703 9.84229 65.013 10.0274 64.3735 10.3977C63.7339 10.7511 63.2122 11.2812 62.8083 11.988C62.4212 12.678 62.2277 13.5027 62.2277 14.462C62.2277 15.4212 62.4212 16.2627 62.8083 16.9864C63.2122 17.71 63.7339 18.2654 64.3735 18.6525C65.0298 19.0227 65.7198 19.2078 66.4435 19.2078C67.184 19.2078 67.874 19.0227 68.5135 18.6525C69.153 18.2822 69.6663 17.7437 70.0534 17.0369C70.4573 16.3132 70.6592 15.4717 70.6592 14.5124Z" fill="#302C2A"/>
<path d="M78.9578 9.6151C79.4459 8.97558 80.1106 8.43704 80.9521 7.99948C81.7936 7.56191 82.7444 7.34313 83.8047 7.34313C85.0164 7.34313 86.1187 7.64606 87.1117 8.25192C88.1214 8.84095 88.9124 9.674 89.4846 10.7511C90.0568 11.8282 90.3429 13.0651 90.3429 14.462C90.3429 15.8588 90.0568 17.1126 89.4846 18.2233C88.9124 19.3172 88.1214 20.1755 87.1117 20.7982C86.1187 21.4041 85.0164 21.707 83.8047 21.707C82.7444 21.707 81.802 21.4966 80.9774 21.0759C80.1527 20.6383 79.4795 20.0998 78.9578 19.4603V28.0938H76.08V7.57033H78.9578V9.6151ZM87.4146 14.462C87.4146 13.5027 87.2126 12.678 86.8087 11.988C86.4217 11.2812 85.9 10.7511 85.2436 10.3977C84.6041 10.0274 83.9141 9.84229 83.1736 9.84229C82.4499 9.84229 81.7599 10.0274 81.1036 10.3977C80.4641 10.7679 79.9423 11.3065 79.5384 12.0133C79.1514 12.7201 78.9578 13.5532 78.9578 14.5124C78.9578 15.4717 79.1514 16.3132 79.5384 17.0369C79.9423 17.7437 80.4641 18.2822 81.1036 18.6525C81.7599 19.0227 82.4499 19.2078 83.1736 19.2078C83.9141 19.2078 84.6041 19.0227 85.2436 18.6525C85.9 18.2654 86.4217 17.71 86.8087 16.9864C87.2126 16.2627 87.4146 15.4212 87.4146 14.462Z" fill="#302C2A"/>
<path d="M97.7075 21.6565C96.5294 21.6565 95.4692 21.4546 94.5267 21.0507C93.5843 20.6299 92.8438 20.0409 92.3052 19.2836C91.7667 18.5263 91.4974 17.6427 91.4974 16.633H94.5772C94.6445 17.3903 94.939 18.013 95.4608 18.501C95.9993 18.9891 96.7482 19.2331 97.7075 19.2331C98.7004 19.2331 99.4746 18.9975 100.03 18.5263C100.585 18.0382 100.863 17.4155 100.863 16.6582C100.863 16.0692 100.686 15.5895 100.333 15.2193C99.9963 14.849 99.5671 14.5629 99.0454 14.361C98.5405 14.159 97.8337 13.9402 96.9249 13.7046C95.7805 13.4017 94.8465 13.0988 94.1228 12.7959C93.416 12.4761 92.8101 11.988 92.3052 11.3317C91.8004 10.6753 91.5479 9.80022 91.5479 8.70631C91.5479 7.69655 91.8004 6.813 92.3052 6.05568C92.8101 5.29836 93.517 4.71775 94.4257 4.31384C95.3345 3.90993 96.3864 3.70798 97.5813 3.70798C99.281 3.70798 100.669 4.13713 101.747 4.99543C102.84 5.8369 103.446 6.99813 103.564 8.47911H100.383C100.333 7.8396 100.03 7.29264 99.4746 6.83825C98.9192 6.38385 98.1871 6.15666 97.2783 6.15666C96.4537 6.15666 95.7805 6.36702 95.2588 6.78776C94.7371 7.20849 94.4762 7.81435 94.4762 8.60533C94.4762 9.14387 94.6361 9.58985 94.9559 9.94327C95.2925 10.2799 95.7132 10.5491 96.2181 10.7511C96.723 10.953 97.413 11.1718 98.2881 11.4074C99.4493 11.7272 100.392 12.0469 101.115 12.3667C101.856 12.6865 102.479 13.1829 102.983 13.8561C103.505 14.5124 103.766 15.396 103.766 16.5067C103.766 17.3987 103.522 18.2402 103.034 19.0311C102.563 19.8221 101.864 20.4616 100.939 20.9497C100.03 21.4209 98.9529 21.6565 97.7075 21.6565Z" fill="#302C2A"/>
<path d="M113.094 7.34313C114.154 7.34313 115.097 7.57033 115.921 8.02472C116.763 8.47911 117.419 9.15229 117.891 10.0442C118.379 10.9362 118.623 12.0133 118.623 13.2755V21.4798H115.77V13.7046C115.77 12.4593 115.459 11.5084 114.836 10.8521C114.213 10.1789 113.363 9.84229 112.286 9.84229C111.209 9.84229 110.351 10.1789 109.711 10.8521C109.089 11.5084 108.777 12.4593 108.777 13.7046V21.4798H105.9V2.79919H108.777V9.18595C109.265 8.59692 109.88 8.14253 110.62 7.82277C111.378 7.50301 112.202 7.34313 113.094 7.34313Z" fill="#302C2A"/>
<path d="M127.065 21.707C125.752 21.707 124.565 21.4125 123.505 20.8235C122.445 20.2176 121.612 19.3761 121.006 18.2991C120.4 17.2052 120.097 15.9429 120.097 14.5124C120.097 13.0988 120.409 11.845 121.031 10.7511C121.654 9.65717 122.504 8.8157 123.581 8.22667C124.658 7.63764 125.861 7.34313 127.191 7.34313C128.52 7.34313 129.724 7.63764 130.801 8.22667C131.878 8.8157 132.728 9.65717 133.35 10.7511C133.973 11.845 134.284 13.0988 134.284 14.5124C134.284 15.9261 133.965 17.1799 133.325 18.2738C132.686 19.3677 131.81 20.2176 130.7 20.8235C129.606 21.4125 128.394 21.707 127.065 21.707ZM127.065 19.2078C127.805 19.2078 128.495 19.0311 129.135 18.6777C129.791 18.3243 130.321 17.7942 130.725 17.0873C131.129 16.3805 131.331 15.5222 131.331 14.5124C131.331 13.5027 131.137 12.6528 130.75 11.9628C130.363 11.256 129.85 10.7258 129.21 10.3724C128.571 10.019 127.881 9.84229 127.14 9.84229C126.4 9.84229 125.71 10.019 125.07 10.3724C124.448 10.7258 123.951 11.256 123.581 11.9628C123.211 12.6528 123.026 13.5027 123.026 14.5124C123.026 16.0103 123.404 17.1715 124.162 17.9961C124.936 18.8039 125.903 19.2078 127.065 19.2078Z" fill="#302C2A"/>
<path d="M139.225 9.91803V17.6175C139.225 18.1392 139.342 18.5178 139.578 18.7535C139.83 18.9722 140.251 19.0816 140.84 19.0816H142.607V21.4798H140.335C139.039 21.4798 138.046 21.1769 137.356 20.571C136.666 19.9652 136.321 18.9807 136.321 17.6175V9.91803H134.681V7.57033H136.321V4.11189H139.225V7.57033H142.607V9.91803H139.225Z" fill="#302C2A"/>
</svg>
