<svg width="108" height="30" viewBox="0 0 108 30" fill="none" xmlns="http://www.w3.org/2000/svg">
<path d="M61.189 22.1554V4.86627H64.3216V22.1554H61.189Z" fill="#302C2A"/>
<path d="M34.6719 5.34453L41.2958 22.1554H43.8784L50.5741 5.34453H47.1067L42.6262 17.1474L38.1871 5.34453H34.6719Z" fill="#302C2A"/>
<path fill-rule="evenodd" clip-rule="evenodd" d="M51.0419 21.6054C51.9824 22.1315 53.0346 22.3945 54.1984 22.3945C55.3621 22.3945 56.4063 22.1315 57.331 21.6054C58.2716 21.0634 59.0129 20.338 59.5549 19.4293C60.0969 18.5047 60.3679 17.4764 60.3679 16.3445C60.3679 15.2126 60.0969 14.2003 59.5549 13.3076C59.0129 12.3989 58.2716 11.6815 57.331 11.1554C56.4063 10.6134 55.3542 10.3424 54.1745 10.3424C53.0266 10.3424 51.9824 10.6134 51.0419 11.1554C50.1013 11.6815 49.36 12.3989 48.8179 13.3076C48.2759 14.2003 48.0049 15.2126 48.0049 16.3445C48.0049 17.4764 48.2759 18.5047 48.8179 19.4293C49.3759 20.338 50.1172 21.0634 51.0419 21.6054ZM55.7288 19.0945C55.2824 19.3496 54.7643 19.4771 54.1745 19.4771C53.6005 19.4771 53.0904 19.3496 52.644 19.0945C52.1977 18.8235 51.8469 18.4568 51.5919 17.9945C51.3368 17.5163 51.2092 16.9742 51.2092 16.3684C51.2092 15.7626 51.3368 15.2286 51.5919 14.7663C51.8469 14.3039 52.1977 13.9452 52.644 13.6902C53.0904 13.4192 53.6005 13.2837 54.1745 13.2837C54.7643 13.2837 55.2824 13.4192 55.7288 13.6902C56.1752 13.9452 56.5259 14.3039 56.781 14.7663C57.0361 15.2286 57.1636 15.7626 57.1636 16.3684C57.1636 16.9742 57.0361 17.5163 56.781 17.9945C56.5419 18.4568 56.1911 18.8235 55.7288 19.0945Z" fill="#302C2A"/>
<path d="M68.1016 21.7489C68.8987 22.1793 69.8073 22.3945 70.8276 22.3945C71.8479 22.3945 72.7486 22.1873 73.5298 21.7728C74.3269 21.3423 74.9407 20.7445 75.3711 19.9793C75.8175 19.2141 76.0407 18.3213 76.0407 17.301V10.6054H72.9081V17.2293C72.9081 17.9467 72.7247 18.5047 72.3581 18.9032C71.9914 19.3018 71.4813 19.501 70.8276 19.501C70.3972 19.501 70.0226 19.4134 69.7037 19.238C69.3849 19.0626 69.1458 18.8076 68.9863 18.4728C68.8269 18.1221 68.7472 17.7076 68.7472 17.2293V10.6054H65.5907V17.301C65.5907 18.3054 65.8139 19.1902 66.2603 19.9554C66.7066 20.7206 67.3204 21.3184 68.1016 21.7489Z" fill="#302C2A"/>
<path d="M77.3396 22.1554V10.6054H80.4722V11.6075C80.7525 11.3339 81.0713 11.1035 81.4288 10.9163C82.0983 10.5496 82.8556 10.3663 83.7005 10.3663C84.4976 10.3663 85.223 10.5496 85.8766 10.9163C86.4243 11.2102 86.8769 11.6105 87.2344 12.1171C87.6207 11.624 88.0928 11.2317 88.6505 10.9402C89.3519 10.5576 90.1331 10.3663 90.994 10.3663C91.8548 10.3663 92.628 10.5496 93.3135 10.9163C93.999 11.267 94.5411 11.7771 94.9396 12.4467C95.3382 13.1163 95.5374 13.9134 95.5374 14.838V22.1554H92.4048V15.3402C92.4048 14.6706 92.1896 14.1525 91.7592 13.7858C91.3447 13.4032 90.8266 13.2119 90.2048 13.2119C89.8063 13.2119 89.4317 13.2996 89.0809 13.475C88.7461 13.6344 88.4831 13.8735 88.2918 14.1923C88.1005 14.5112 88.0048 14.8938 88.0048 15.3402V22.1554H84.8722V15.3402C84.8722 14.6706 84.657 14.1525 84.2266 13.7858C83.8121 13.4032 83.294 13.2119 82.6722 13.2119C82.2577 13.2119 81.8831 13.2996 81.5483 13.475C81.2135 13.6344 80.9505 13.8735 80.7592 14.1923C80.5679 14.5112 80.4722 14.8938 80.4722 15.3402V22.1554H77.3396Z" fill="#302C2A"/>
<path fill-rule="evenodd" clip-rule="evenodd" d="M99.1767 21.6293C100.117 22.1394 101.193 22.3945 102.405 22.3945C103.346 22.3945 104.214 22.2271 105.011 21.8923C105.825 21.5576 106.51 21.0634 107.068 20.4097L105.227 18.5684C104.876 18.967 104.461 19.2699 103.983 19.4771C103.505 19.6684 102.971 19.7641 102.381 19.7641C101.727 19.7641 101.154 19.6286 100.659 19.3576C100.165 19.0706 99.7825 18.6721 99.5115 18.1619C99.4096 17.9517 99.328 17.7275 99.2668 17.4892L107.714 17.4684C107.777 17.1974 107.817 16.9583 107.833 16.751C107.865 16.5279 107.881 16.3126 107.881 16.1054C107.881 15.0054 107.634 14.025 107.14 13.1641C106.661 12.2873 105.992 11.6018 105.131 11.1076C104.286 10.5974 103.306 10.3424 102.19 10.3424C101.058 10.3424 100.03 10.6134 99.105 11.1554C98.1803 11.6815 97.447 12.3989 96.905 13.3076C96.3789 14.2003 96.1158 15.2206 96.1158 16.3684C96.1158 17.5322 96.3869 18.5684 96.9289 19.4771C97.4868 20.3858 98.2361 21.1032 99.1767 21.6293ZM99.2696 15.1452C99.3255 14.9338 99.3982 14.7357 99.4876 14.551C99.7426 14.0409 100.101 13.6503 100.564 13.3793C101.026 13.0924 101.568 12.9489 102.19 12.9489C102.78 12.9489 103.274 13.0764 103.672 13.3315C104.087 13.5706 104.398 13.9213 104.605 14.3837C104.712 14.6062 104.798 14.8547 104.861 15.129L99.2696 15.1452Z" fill="#302C2A"/>
<path fill-rule="evenodd" clip-rule="evenodd" d="M15.4191 29.1001C23.4549 29.1001 29.9691 22.5858 29.9691 14.5501C29.9691 6.51428 23.4549 0 15.4191 0C7.3833 0 0.869019 6.51428 0.869019 14.5501C0.869019 22.5858 7.3833 29.1001 15.4191 29.1001ZM21.4448 5.64432C21.6175 5.79037 21.7169 6.00504 21.7169 6.2312L21.7166 9.15443L21.7169 9.34679L21.7166 9.36978V19.1552C21.7166 20.8546 20.3389 22.2322 18.6395 22.2322C16.9401 22.2322 15.5625 20.8546 15.5625 19.1552C15.5625 17.4557 16.9401 16.078 18.6395 16.078C19.2 16.078 19.7254 16.2279 20.178 16.4897V10.2548L12.4851 11.5373V20.6937C12.4851 22.3932 11.1075 23.7708 9.40801 23.7708C7.70857 23.7708 6.33096 22.3932 6.33096 20.6937C6.33096 18.9943 7.70857 17.6165 9.40801 17.6165C9.96852 17.6165 10.4942 17.7664 10.9465 18.0283L10.9469 10.8853L10.9465 10.693L10.9469 10.67V7.76973C10.9469 7.3938 11.2187 7.07281 11.5899 7.01094L20.821 5.47242C21.0441 5.43523 21.2723 5.49811 21.4448 5.64432Z" fill="#302C2A"/>
</svg>
