<svg width="102" height="32" viewBox="0 0 102 32" fill="none" xmlns="http://www.w3.org/2000/svg">
<path fill-rule="evenodd" clip-rule="evenodd" d="M31.5114 15.7557C31.5114 24.4573 24.4573 31.5114 15.7557 31.5114C7.05406 31.5114 0 24.4573 0 15.7557C0 7.05406 7.05406 0 15.7557 0C24.4573 0 31.5114 7.05406 31.5114 15.7557ZM16.8226 7.476C18.1236 6.89126 19.6181 6.92117 20.8946 7.55752C22.7832 8.49904 22.7438 11.2071 20.8287 12.0933L16.5799 14.0594C16.1743 14.2471 15.7048 14.2385 15.3063 14.036L11.3121 12.0063C10.8969 11.7952 10.3893 11.9608 10.1783 12.376C9.9673 12.7912 10.1329 13.2989 10.548 13.5099L15.1732 15.8604C15.6342 16.0944 16.1766 16.1043 16.6458 15.8873L21.5371 13.624C24.7358 12.1438 24.8014 7.62063 21.6471 6.0481C19.918 5.18606 17.8934 5.14553 16.1311 5.93767L7.44047 9.84417C6.83487 10.1164 6.44535 10.7186 6.44535 11.3825V14.1572C6.44535 14.7969 6.80706 15.3813 7.37946 15.6667L15.1677 19.5496C15.6415 19.7856 16.1988 19.7856 16.6727 19.5496L22.939 16.4256C23.2927 16.2491 23.7084 16.5064 23.7084 16.9018C23.7084 17.1034 23.5944 17.2878 23.4138 17.3779L16.5711 20.7893C16.1612 20.9936 15.6792 20.9936 15.2692 20.7893L8.88447 17.6061C7.76317 17.0471 6.44535 17.8626 6.44535 19.1154V20.6119C6.44535 21.2515 6.80706 21.8362 7.37946 22.1216L15.1706 26.0056C15.6412 26.2402 16.1944 26.242 16.6665 26.0103L22.6306 23.0821C23.0487 22.8767 23.2212 22.3713 23.0161 21.9532C22.8107 21.5351 22.3056 21.3627 21.8875 21.5681L16.5711 24.178C16.1626 24.3787 15.6841 24.3772 15.2771 24.1742L8.50284 20.7969C8.27558 20.6837 8.13197 20.4515 8.13197 20.1976C8.13197 19.7001 8.65517 19.3763 9.10036 19.5983L15.1677 22.6231C15.6415 22.8594 16.1988 22.8594 16.6727 22.6231L24.4609 18.7405C25.0334 18.4552 25.3952 17.8704 25.3952 17.2309V16.0419C25.3952 14.789 24.0772 13.9734 22.956 14.5324L16.5711 17.7155C16.1612 17.9198 15.6792 17.9198 15.2692 17.7155L8.93994 14.5601C8.44486 14.3132 8.13197 13.8076 8.13197 13.2544V12.3262C8.13197 11.7519 8.4689 11.2311 8.99272 10.9956L16.8226 7.476Z" fill="#302C2A"/>
<path d="M41.3584 11.2376V14.5967H45.8689V16.7272H41.3584V20.2781H46.4448V22.4664H38.6711V9.04944H46.4448V11.2376H41.3584Z" fill="#302C2A"/>
<path d="M50.8062 13.3873C51.1517 12.8755 51.6252 12.4596 52.2266 12.1397C52.841 11.8198 53.5384 11.6598 54.3188 11.6598C55.2274 11.6598 56.0464 11.8838 56.7759 12.3316C57.5178 12.7795 58.1002 13.4193 58.5224 14.2511C58.9574 15.07 59.1751 16.0235 59.1751 17.1112C59.1751 18.1986 58.9574 19.165 58.5224 20.0094C58.1002 20.8412 57.5178 21.4875 56.7759 21.9482C56.0464 22.4086 55.2274 22.6391 54.3188 22.6391C53.5255 22.6391 52.8282 22.4856 52.2266 22.1784C51.6381 21.8586 51.1645 21.449 50.8062 20.95V22.4664H48.119V8.26245H50.8062V13.3873ZM56.4301 17.1112C56.4301 16.4713 56.2959 15.9211 56.0272 15.4603C55.7713 14.9868 55.4258 14.6285 54.9905 14.3855C54.5683 14.1423 54.1076 14.0208 53.6087 14.0208C53.1223 14.0208 52.6616 14.1487 52.2266 14.4047C51.8044 14.6478 51.4589 15.0061 51.1902 15.4796C50.9343 15.9529 50.8062 16.5096 50.8062 17.1494C50.8062 17.7893 50.9343 18.346 51.1902 18.8192C51.4589 19.2928 51.8044 19.6575 52.2266 19.9134C52.6616 20.1567 53.1223 20.2781 53.6087 20.2781C54.1076 20.2781 54.5683 20.1503 54.9905 19.8941C55.4258 19.6382 55.7713 19.2735 56.0272 18.8003C56.2959 18.3267 56.4301 17.7636 56.4301 17.1112Z" fill="#302C2A"/>
<path d="M65.0817 22.6392C64.0582 22.6392 63.1368 22.4151 62.3178 21.9672C61.4988 21.5065 60.8525 20.8605 60.3792 20.0287C59.9185 19.1968 59.6883 18.2372 59.6883 17.1495C59.6883 16.0618 59.9249 15.1021 60.3985 14.2704C60.8846 13.4386 61.5437 12.7988 62.3753 12.3509C63.2071 11.8902 64.1349 11.6599 65.1585 11.6599C66.1823 11.6599 67.1101 11.8902 67.9417 12.3509C68.7735 12.7988 69.4262 13.4386 69.8995 14.2704C70.3859 15.1021 70.6289 16.0618 70.6289 17.1495C70.6289 18.2372 70.3794 19.1968 69.8805 20.0287C69.3941 20.8605 68.7289 21.5065 67.8842 21.9672C67.0524 22.4151 66.1184 22.6392 65.0817 22.6392ZM65.0817 20.2974C65.5681 20.2974 66.0224 20.1822 66.4446 19.952C66.8796 19.7089 67.2251 19.3506 67.481 18.8771C67.7371 18.4035 67.8649 17.8279 67.8649 17.1495C67.8649 16.1385 67.5962 15.3644 67.0588 14.827C66.5342 14.2768 65.8879 14.0016 65.1202 14.0016C64.3523 14.0016 63.7063 14.2768 63.1814 14.827C62.6697 15.3644 62.4138 16.1385 62.4138 17.1495C62.4138 18.1605 62.6632 18.941 63.1625 19.4912C63.6742 20.0287 64.3141 20.2974 65.0817 20.2974Z" fill="#302C2A"/>
<path d="M76.5542 22.6392C75.5304 22.6392 74.6093 22.4151 73.7903 21.9672C72.9713 21.5065 72.325 20.8605 71.8517 20.0287C71.391 19.1968 71.1605 18.2372 71.1605 17.1495C71.1605 16.0618 71.3974 15.1021 71.8707 14.2704C72.3571 13.4386 73.0162 12.7988 73.8477 12.3509C74.6796 11.8902 75.6074 11.6599 76.631 11.6599C77.6548 11.6599 78.5823 11.8902 79.4142 12.3509C80.246 12.7988 80.8987 13.4386 81.372 14.2704C81.8583 15.1021 82.1014 16.0618 82.1014 17.1495C82.1014 18.2372 81.8519 19.1968 81.3527 20.0287C80.8666 20.8605 80.2011 21.5065 79.3567 21.9672C78.5248 22.4151 77.5906 22.6392 76.5542 22.6392ZM76.5542 20.2974C77.0406 20.2974 77.4949 20.1822 77.9171 19.952C78.3521 19.7089 78.6976 19.3506 78.9535 18.8771C79.2093 18.4035 79.3374 17.8279 79.3374 17.1495C79.3374 16.1385 79.0687 15.3644 78.5313 14.827C78.0067 14.2768 77.3604 14.0016 76.5927 14.0016C75.8248 14.0016 75.1785 14.2768 74.6539 14.827C74.1421 15.3644 73.8863 16.1385 73.8863 17.1495C73.8863 18.1605 74.1357 18.941 74.6347 19.4912C75.1467 20.0287 75.7866 20.2974 76.5542 20.2974Z" fill="#302C2A"/>
<path d="M89.6005 22.4664L85.9921 17.9363V22.4664H83.3049V8.26245H85.9921V16.3433L89.5623 11.8326H93.0557L88.3721 17.1687L93.0939 22.4664H89.6005Z" fill="#302C2A"/>
<path d="M97.8154 22.6392C96.9453 22.6392 96.1648 22.4857 95.4739 22.1785C94.7827 21.8587 94.2324 21.4298 93.823 20.8923C93.4262 20.3549 93.2089 19.76 93.1703 19.1073H95.8768C95.9282 19.5169 96.1263 19.856 96.4717 20.1247C96.83 20.3934 97.2718 20.5276 97.7964 20.5276C98.3082 20.5276 98.705 20.4255 98.9862 20.2207C99.2806 20.0159 99.4277 19.7536 99.4277 19.4338C99.4277 19.088 99.2485 18.8321 98.8902 18.6658C98.5448 18.4867 97.9884 18.2947 97.2204 18.0902C96.4271 17.8982 95.7744 17.6998 95.2627 17.4949C94.7637 17.2904 94.3284 16.9768 93.9575 16.5546C93.5993 16.1321 93.4201 15.5628 93.4201 14.8462C93.4201 14.2576 93.5864 13.7201 93.919 13.2338C94.2645 12.7476 94.7509 12.3637 95.3779 12.0822C96.0178 11.8007 96.7661 11.6599 97.6237 11.6599C98.8902 11.6599 99.9012 11.9798 100.656 12.6196C101.411 13.2467 101.827 14.0976 101.904 15.1724H99.332C99.2935 14.7502 99.1143 14.4175 98.7945 14.1744C98.4873 13.9185 98.0715 13.7905 97.5466 13.7905C97.0605 13.7905 96.683 13.8801 96.4143 14.0592C96.1584 14.2384 96.0303 14.4879 96.0303 14.8077C96.0303 15.166 96.2094 15.4412 96.5677 15.6331C96.926 15.8123 97.4827 15.9979 98.2378 16.1898C99.0055 16.3818 99.6389 16.5799 100.138 16.7848C100.637 16.9896 101.066 17.3094 101.424 17.7444C101.795 18.1669 101.987 18.7297 102 19.4338C102 20.0479 101.827 20.5982 101.482 21.0843C101.149 21.5707 100.663 21.9544 100.023 22.2359C99.3959 22.5047 98.66 22.6392 97.8154 22.6392Z" fill="#302C2A"/>
</svg>
