<svg width="134" height="28" viewBox="0 0 134 28" fill="none" xmlns="http://www.w3.org/2000/svg">
<path d="M108.974 1.27393V26.1156H112.61V1.27393H108.974Z" fill="#302C2A"/>
<path fill-rule="evenodd" clip-rule="evenodd" d="M76.0991 26.5165C74.6643 26.5165 73.4659 26.1824 72.5034 25.514C72.398 25.441 72.2958 25.3649 72.1961 25.2859V26.1156H68.988V1.67493H72.6506V12.1453C73.549 11.5676 74.636 11.2787 75.9118 11.2787C77.2931 11.2787 78.496 11.6084 79.5209 12.2678C80.5457 12.9272 81.3388 13.8317 81.8999 14.9813C82.4703 16.1219 82.7554 17.4274 82.7554 18.8975C82.7554 20.3412 82.4748 21.6377 81.9133 22.7874C81.3611 23.9368 80.5856 24.8458 79.5877 25.514C78.5896 26.1824 77.4268 26.5165 76.0991 26.5165ZM72.5168 16.5987C72.3028 17.2579 72.1961 18.0242 72.1961 18.8975C72.1961 19.7708 72.3028 20.5373 72.5168 21.1966C72.7305 21.8562 73.0783 22.3683 73.5592 22.7339C74.0493 23.0992 74.7 23.2817 75.5109 23.2817C76.295 23.2817 76.9367 23.0858 77.4358 22.6938C77.9348 22.3017 78.3046 21.7759 78.545 21.1163C78.7858 20.4482 78.9059 19.7087 78.9059 18.8975C78.9059 18.0955 78.7813 17.3649 78.5317 16.7057C78.2823 16.0372 77.8947 15.507 77.3689 15.1149C76.852 14.7139 76.1879 14.5134 75.3771 14.5134C74.6197 14.5134 74.0048 14.6961 73.5328 15.0614C73.0694 15.4268 72.7305 15.9391 72.5168 16.5987Z" fill="#302C2A"/>
<path d="M63.24 17.5875V26.1155H66.8755V16.6254C66.8755 15.048 66.4523 13.7738 65.6057 12.8025C64.7681 11.8223 63.5251 11.3322 61.8766 11.3322C60.9142 11.3322 60.0364 11.546 59.2434 11.9737C58.5173 12.3616 57.9249 12.8945 57.4663 13.5726C57.1242 12.9572 56.6516 12.451 56.0487 12.0539C55.327 11.5727 54.4002 11.3322 53.2687 11.3322C52.2795 11.3322 51.3839 11.5505 50.582 11.9871C49.9759 12.3208 49.4634 12.7455 49.0446 13.2613V11.6797H45.8369V26.1155H49.4991V17.3738C49.4991 16.5451 49.7265 15.8723 50.181 15.3555C50.6444 14.8297 51.2546 14.5669 52.0119 14.5669C52.8053 14.5669 53.4244 14.8342 53.87 15.3689C54.3244 15.8946 54.5518 16.6343 54.5518 17.5875V26.1155H58.1873V17.3738C58.1873 16.8213 58.2899 16.3356 58.495 15.9169C58.7087 15.4891 59.0026 15.1594 59.3772 14.9278C59.7514 14.6871 60.1925 14.5669 60.7005 14.5669C61.4935 14.5669 62.1126 14.8342 62.5582 15.3689C63.0127 15.8946 63.24 16.6343 63.24 17.5875Z" fill="#302C2A"/>
<path d="M32.8113 25.9684C33.524 26.3515 34.4463 26.5433 35.5782 26.5433C36.9948 26.5433 38.1669 26.2359 39.0936 25.6209C39.5335 25.3321 39.9211 25.0005 40.2564 24.627V26.1155H43.4645V11.6797H39.802V19.0045C39.802 19.8956 39.6994 20.6173 39.4946 21.1698C39.2984 21.7135 39.0446 22.1278 38.7325 22.4129C38.4207 22.6893 38.0866 22.8763 37.7302 22.9744C37.3738 23.0724 37.0394 23.1215 36.7276 23.1215C35.9525 23.1215 35.3508 22.9476 34.9231 22.6001C34.5043 22.2527 34.2014 21.8205 34.0142 21.3036C33.8272 20.7867 33.7158 20.2743 33.6801 19.7663C33.6444 19.2497 33.6266 18.8264 33.6266 18.4965V11.6797H29.9376V19.7797C29.9376 20.0204 29.9551 20.4036 29.9908 20.9294C30.0265 21.4552 30.129 22.0387 30.2984 22.6804C30.4675 23.3129 30.7485 23.9234 31.1405 24.5117C31.5415 25.0996 32.0985 25.5853 32.8113 25.9684Z" fill="#302C2A"/>
<path d="M84.3602 11.6796V26.1155H88.0224V18.7372C88.0224 18.1846 88.0982 17.69 88.2498 17.2534C88.4014 16.8078 88.624 16.4247 88.918 16.104C89.2123 15.7742 89.5731 15.5113 90.0008 15.3153C90.4285 15.1104 90.9053 14.99 91.4311 14.9544C91.9655 14.9098 92.4334 14.9499 92.8344 15.0747V11.6796C92.3977 11.6261 91.9611 11.6172 91.5244 11.6529C91.0878 11.6796 90.6645 11.7553 90.2546 11.8801C89.8448 11.9959 89.4661 12.1608 89.1186 12.3747C88.6641 12.642 88.281 12.9806 87.9692 13.3905C87.8214 13.5846 87.6877 13.7886 87.5679 14.0026V11.6796H84.3602Z" fill="#302C2A"/>
<path fill-rule="evenodd" clip-rule="evenodd" d="M100.489 26.5165C99.0101 26.5165 97.7046 26.2003 96.573 25.5674C95.4501 24.926 94.5679 24.0483 93.9264 22.9342C93.2936 21.8116 92.9774 20.5284 92.9774 19.0847C92.9774 17.5076 93.2891 16.1353 93.9131 14.9679C94.5366 13.8005 95.3965 12.896 96.4928 12.2545C97.5887 11.604 98.8499 11.2787 100.275 11.2787C101.79 11.2787 103.078 11.6351 104.138 12.348C105.199 13.0609 105.983 14.0634 106.491 15.3555C106.999 16.6477 107.177 18.1669 107.026 19.9134H96.8893C97.0027 20.78 97.2718 21.4839 97.6957 22.0253C98.2839 22.7562 99.1438 23.1215 100.275 23.1215C100.988 23.1215 101.599 22.9654 102.107 22.6536C102.615 22.3418 103.002 21.8918 103.269 21.3036L106.905 22.3463C106.362 23.6651 105.502 24.6897 104.326 25.4203C103.158 26.1512 101.88 26.5165 100.489 26.5165ZM102.722 15.409C103.032 15.8311 103.241 16.4327 103.347 17.2133H96.9848C97.1265 16.5467 97.3635 15.9986 97.6957 15.5693C98.2839 14.8119 99.1973 14.4332 100.436 14.4332C101.496 14.4332 102.258 14.7585 102.722 15.409Z" fill="#302C2A"/>
<path d="M115.548 26.1156V1.27393H119.184V26.1156H115.548Z" fill="#302C2A"/>
<path fill-rule="evenodd" clip-rule="evenodd" d="M123.231 25.9283C123.953 26.3203 124.831 26.5165 125.864 26.5165C127.112 26.5165 128.141 26.3025 128.952 25.8748C129.598 25.5305 130.209 25.0203 130.783 24.3435V26.1155H133.964V17.2936C133.964 16.6343 133.938 16.0372 133.884 15.5025C133.831 14.9679 133.661 14.4332 133.376 13.8985C132.868 12.9361 132.12 12.2589 131.131 11.8668C130.141 11.4747 129.01 11.2787 127.736 11.2787C125.998 11.2787 124.626 11.653 123.619 12.4015C122.612 13.15 121.925 14.1213 121.56 15.3154L124.849 16.3579C125.08 15.6986 125.485 15.2397 126.065 14.9812C126.644 14.7228 127.201 14.5936 127.736 14.5936C128.698 14.5936 129.384 14.7941 129.794 15.1951C130.116 15.51 130.311 15.9649 130.381 16.5601C129.765 16.6534 129.182 16.742 128.631 16.8257C127.695 16.9595 126.858 17.1022 126.118 17.2535C125.378 17.405 124.742 17.5789 124.207 17.7748C123.432 18.0598 122.812 18.4165 122.349 18.8443C121.894 19.2631 121.565 19.7484 121.36 20.301C121.155 20.8536 121.052 21.4641 121.052 22.1323C121.052 22.9342 121.235 23.6693 121.6 24.3378C121.975 24.997 122.518 25.5273 123.231 25.9283ZM128.324 23.3084C127.869 23.5403 127.308 23.6562 126.639 23.6562C126.221 23.6562 125.86 23.5938 125.557 23.469C125.254 23.3441 125.018 23.1661 124.849 22.9342C124.688 22.6938 124.608 22.4084 124.608 22.0788C124.608 21.8383 124.657 21.6198 124.755 21.424C124.862 21.2278 125.022 21.0498 125.236 20.8892C125.459 20.7198 125.748 20.5641 126.105 20.4214C126.417 20.3055 126.778 20.1985 127.187 20.1007C127.597 20.0026 128.137 19.8956 128.805 19.7797C129.234 19.6997 129.748 19.6083 130.347 19.5061C130.339 19.7602 130.324 20.0475 130.302 20.3679C130.275 20.8848 130.168 21.3393 129.981 21.7313C129.883 21.9361 129.696 22.1902 129.42 22.4931C129.152 22.796 128.787 23.068 128.324 23.3084Z" fill="#302C2A"/>
<path fill-rule="evenodd" clip-rule="evenodd" d="M9.87296 11.7839H0V16.0834C0 22.5033 5.20451 27.708 11.6246 27.708C18.0447 27.708 23.2494 22.5033 23.2494 16.0834V11.7839H13.0578V4.93648C13.0578 2.21014 10.8476 0 8.12131 0C5.39497 0 3.18483 2.21014 3.18483 4.93648H6.36965C6.36965 3.96906 7.15391 3.18483 8.12131 3.18483C9.08873 3.18483 9.87296 3.96906 9.87296 4.93648V11.7839ZM9.87296 14.9687V21.0198H13.0578V14.9687H20.0646V16.0834C20.0646 20.7447 16.2858 24.5232 11.6246 24.5232C6.96346 24.5232 3.18483 20.7447 3.18483 16.0834V14.9687H9.87296Z" fill="#302C2A"/>
</svg>
