<svg xmlns="http://www.w3.org/2000/svg" viewBox="0 0 100 100" x="0px" y="0px" width="100px" height='100px' >
    <g fill="#ff7a1c">
        <path d="M60,26v7.1719L46.5859,46.5859a2,2,0,1,0,2.8282,2.8282L62.8281,36H70a1.9985,1.9985,0,0,0,1.4141-.5859l12-12A2,2,0,0,0,82,20H76V14a2,2,0,0,0-3.4141-1.4141l-12,12A1.9987,1.9987,0,0,0,60,26Z"/>
        <path d="M83.2952,29.1892l-5.9871,5.9871A32.029,32.029,0,1,1,60.8237,18.6919l5.9873-5.9873A40.0152,40.0152,0,1,0,83.2952,29.1892Z"/>
        <path d="M56,26a5.9616,5.9616,0,0,1,1.7419-4.2231A28.0908,28.0908,0,1,0,74.2231,38.2581,5.9616,5.9616,0,0,1,70,40H66.3115A20.0547,20.0547,0,1,1,56,29.6885Z"/>
        <path d="M54.2476,33.2681a15.9938,15.9938,0,1,0,8.4843,8.4843l-10.49,10.49a5.9994,5.9994,0,1,1-8.4844-8.4844Z"/>
    </g>
</svg>
