<svg width="24" height="24" viewBox="0 0 24 24" fill="none" xmlns="http://www.w3.org/2000/svg">
<g clip-path="url(#clip0_26_306)">
<path d="M11.9998 2.44713e-05C9.24048 -0.00554588 6.56351 0.940014 4.41982 2.67744C2.27613 4.41487 0.796705 6.83799 0.230735 9.53868C-0.335236 12.2394 0.0468285 15.0526 1.31258 17.5045C2.57832 19.9565 4.65041 21.8973 7.17983 23C7.14983 22.15 7.17983 21.15 7.38983 20.24L8.93983 13.7C8.93983 13.7 8.54983 12.93 8.54983 11.8C8.54983 10.02 9.57983 8.70002 10.8698 8.70002C11.9598 8.70002 12.4898 9.51003 12.4898 10.5C12.4898 11.59 11.7898 13.23 11.4298 14.75C11.1298 16.02 12.0598 17.06 13.3198 17.06C15.5898 17.06 17.1198 14.14 17.1198 10.68C17.1198 8.05002 15.3498 6.08002 12.1298 6.08002C11.3597 6.05011 10.5915 6.17724 9.87207 6.45368C9.15263 6.73011 8.49697 7.15008 7.94502 7.688C7.39306 8.22592 6.95636 8.87055 6.66148 9.58263C6.36661 10.2947 6.21975 11.0594 6.22983 11.83C6.22983 12.88 6.52983 13.61 7.00983 14.18C7.23983 14.45 7.26983 14.55 7.18983 14.85L6.93983 15.82C6.85983 16.12 6.61983 16.22 6.33983 16.12C4.66983 15.43 3.87983 13.6 3.87983 11.53C3.87983 8.13002 6.75983 4.03002 12.4598 4.03002C17.0398 4.03002 20.0598 7.35002 20.0598 10.91C20.0598 15.61 17.4398 19.13 13.5798 19.13C12.2798 19.13 11.0698 18.43 10.6498 17.63L9.80983 20.93C9.54983 21.86 9.04983 22.79 8.59983 23.51C10.39 24.0411 12.2795 24.1467 14.1178 23.8184C15.956 23.4901 17.6921 22.737 19.1879 21.6191C20.6836 20.5012 21.8975 19.0494 22.7329 17.3794C23.5684 15.7094 24.0022 13.8673 23.9998 12C23.9998 8.81743 22.7355 5.76518 20.4851 3.51474C18.2347 1.26431 15.1824 2.44713e-05 11.9998 2.44713e-05Z" fill="black"/>
</g>
<defs>
<clipPath id="clip0_26_306">
<rect width="24" height="24" fill="white"/>
</clipPath>
</defs>
</svg>
