<svg width="18" height="18" viewBox="0 0 18 18" fill="none" xmlns="http://www.w3.org/2000/svg">
<path d="M13.6846 13.4444C12.6837 13.4444 11.8725 14.2404 11.8725 15.2222C11.8725 16.2041 12.6837 17 13.6846 17C14.6854 17 15.4966 16.2041 15.4966 15.2222C15.4966 14.2404 14.6854 13.4444 13.6846 13.4444ZM13.6846 13.4444H6.70257C6.28482 13.4444 6.07557 13.4444 5.90359 13.3716C5.75187 13.3072 5.62024 13.2036 5.52434 13.0716C5.41685 12.9236 5.37362 12.7256 5.28805 12.3338L3.05805 2.12413C2.97049 1.72323 2.92612 1.523 2.81739 1.37326C2.72149 1.2412 2.58989 1.13725 2.43817 1.07293C2.26615 1 2.05806 1 1.64014 1H1M3.71812 3.66667H15.3817C16.0357 3.66667 16.3624 3.66667 16.5819 3.80032C16.7741 3.91739 16.9149 4.101 16.9762 4.31467C17.0463 4.5586 16.9563 4.86663 16.7751 5.48308L15.5206 9.74978C15.4122 10.1183 15.3579 10.3022 15.248 10.439C15.151 10.5597 15.023 10.6542 14.8778 10.7123C14.7139 10.7778 14.5191 10.7778 14.1304 10.7778H5.28599M5.5302 17C4.52941 17 3.71812 16.2041 3.71812 15.2222C3.71812 14.2404 4.52941 13.4444 5.5302 13.4444C6.53098 13.4444 7.34228 14.2404 7.34228 15.2222C7.34228 16.2041 6.53098 17 5.5302 17Z" stroke="#4A4340" stroke-width="1.5" stroke-linecap="round" stroke-linejoin="round"/>
</svg>
