<svg width="124" height="27" viewBox="0 0 124 27" fill="none" xmlns="http://www.w3.org/2000/svg">
<path d="M115.675 23.1413V9.90961H118.666V11.7582C119.347 10.2745 120.612 9.76367 122.242 9.76367H123.02V12.5851H121.877C120.077 12.5851 118.861 13.7526 118.861 15.7715V23.1413H115.675Z" fill="black"/>
<path d="M108.03 23.4331C103.968 23.4331 101.219 20.3684 101.219 16.5011C101.219 12.5364 104.065 9.61768 107.787 9.61768C111.897 9.61768 114.232 12.5608 114.232 16.0876C114.232 16.5741 114.183 17.0605 114.062 17.4254H104.527C104.722 19.3712 106.133 20.636 108.054 20.636C109.513 20.636 110.535 19.9549 111.119 18.9334L113.697 20.1982C112.894 22.0954 110.73 23.4331 108.03 23.4331ZM104.6 14.9931H110.827C110.681 13.3634 109.465 12.2446 107.787 12.2446C106.181 12.2446 104.965 13.2418 104.6 14.9931Z" fill="black"/>
<path d="M96.5991 23.141V4.72852H99.7854V23.141H96.5991Z" fill="black"/>
<path d="M93.5566 23.2873C90.5649 23.2873 88.8623 21.5603 88.8623 18.5929V12.7554H86.5759V9.90961H86.8192C88.1083 9.90961 88.8623 9.20424 88.8623 7.91512V6.89355H92.0486V9.90961H95.089V12.7554H92.0486V18.4227C92.0486 19.7604 92.7296 20.4901 94.2863 20.4901C94.5052 20.4901 94.8214 20.4658 95.1376 20.4171V23.1413C94.6755 23.2143 94.0431 23.2873 93.5566 23.2873Z" fill="black"/>
<path d="M81.0383 23.4331C78.2168 23.4331 75.9791 21.9738 75.2007 19.6874L77.5844 18.5442C78.2898 20.0279 79.5546 20.9279 81.0383 20.9279C82.1814 20.9279 82.9355 20.3928 82.9355 19.5171C82.9355 18.7631 82.2544 18.374 81.4031 18.1307L79.2384 17.5226C77.0006 16.8903 75.8331 15.5038 75.8331 13.6796C75.8331 11.2473 77.852 9.61768 80.7221 9.61768C83.203 9.61768 85.2461 10.9068 86.0731 13.0472L83.6408 14.1904C83.203 12.9986 82.0355 12.2202 80.6977 12.2202C79.6275 12.2202 78.9708 12.7553 78.9708 13.5337C78.9708 14.2877 79.6032 14.6525 80.5275 14.9201L82.6436 15.5525C84.8327 16.1849 86.0488 17.547 86.0488 19.3955C86.0488 21.8035 84.03 23.4331 81.0383 23.4331Z" fill="black"/>
<path d="M70.8481 23.1412V9.90951H74.0344V23.1412H70.8481ZM70.5319 5.96919C70.5319 4.9233 71.4318 3.99902 72.4777 3.99902C73.5236 3.99902 74.4236 4.9233 74.4236 5.96919C74.4236 7.01508 73.5236 7.8907 72.4777 7.8907C71.4318 7.8907 70.5319 7.01508 70.5319 5.96919Z" fill="black"/>
<path d="M57.403 23.141V4.72852H60.5893V11.2228C61.3433 10.1525 62.6324 9.61744 64.1404 9.61744C67.0592 9.61744 69.1266 11.6606 69.1266 14.628V23.141H65.9403V15.382C65.9403 13.6307 64.8215 12.5362 63.2648 12.5362C61.7081 12.5362 60.5893 13.6551 60.5893 15.382V23.141H57.403Z" fill="black"/>
<path d="M37.2263 23.1411L32.3617 5.02051H35.9129L39.2694 18.6414L42.7963 5.02051H46.2258L49.7283 18.6414L53.0849 5.02051H56.636L51.7714 23.1411H47.9771L44.4989 10.104L41.0207 23.1411H37.2263Z" fill="black"/>
<rect y="0.600098" width="26.2588" height="26.2588" rx="7.29412" fill="black"/>
<g clip-path="url(#clip0_5_5444)">
<path fill-rule="evenodd" clip-rule="evenodd" d="M15.8092 5.74144C17.275 4.27564 19.6515 4.27564 21.1173 5.74144C22.5831 7.20728 22.5831 9.58381 21.1173 11.0496C19.7478 12.4192 18.9562 13.063 18.1811 13.6935C17.4375 14.2984 16.7091 14.8909 15.5 16.0999C14.1305 17.4695 13.4866 18.2611 12.8561 19.0362C12.2512 19.7798 11.6587 20.5082 10.4497 21.7173C8.98389 23.183 6.60732 23.183 5.14152 21.7173C3.67573 20.2514 3.67573 17.8749 5.14152 16.4091C6.51108 15.0395 7.30265 14.3957 8.07778 13.7652C8.82136 13.1603 9.54981 12.5678 10.7588 11.3588C12.1284 9.98921 12.7723 9.19763 13.4028 8.4225C14.0076 7.67892 14.6001 6.95047 15.8092 5.74144ZM13.3034 11.7001C13.0485 11.4452 13.0485 11.0319 13.3034 10.7769C13.5584 10.522 13.9717 10.522 14.2266 10.7769C14.4648 11.0151 14.5768 11.1528 14.6864 11.2876C14.7916 11.4169 14.8946 11.5436 15.1049 11.7539C15.3431 11.992 15.4808 12.104 15.6156 12.2137C15.7449 12.3189 15.8716 12.4219 16.0818 12.6322C16.3368 12.8871 16.3368 13.3004 16.0818 13.5553C15.8269 13.8103 15.4136 13.8103 15.1587 13.5553C14.9205 13.3172 14.8085 13.1795 14.6989 13.0447C14.5937 12.9154 14.4906 12.7887 14.2804 12.5784C14.0422 12.3402 13.9045 12.2283 13.7697 12.1186C13.6404 12.0134 13.5137 11.9104 13.3034 11.7001ZM10.1426 14.8609C9.88773 14.606 9.88773 14.1926 10.1426 13.9377C10.3976 13.6828 10.8109 13.6828 11.0658 13.9377C11.304 14.1759 11.416 14.3136 11.5256 14.4484C11.6308 14.5777 11.7339 14.7044 11.9441 14.9146C12.1823 15.1528 12.32 15.2648 12.4548 15.3745C12.5841 15.4796 12.7108 15.5827 12.9211 15.793C13.176 16.0479 13.176 16.4612 12.9211 16.7161C12.6661 16.971 12.2528 16.971 11.9979 16.7161C11.7597 16.4779 11.6477 16.3403 11.5381 16.2055C11.4329 16.0761 11.3298 15.9495 11.1196 15.7392C10.8814 15.501 10.7437 15.389 10.6089 15.2794C10.4796 15.1742 10.3529 15.0711 10.1426 14.8609Z" fill="url(#paint0_linear_5_5444)"/>
</g>
<defs>
<linearGradient id="paint0_linear_5_5444" x1="13.1294" y1="4.64209" x2="13.1294" y2="22.8166" gradientUnits="userSpaceOnUse">
<stop stop-color="#FFFAF6"/>
<stop offset="1" stop-color="#FFE5D3"/>
</linearGradient>
<clipPath id="clip0_5_5444">
<rect width="18.9647" height="18.9647" fill="white" transform="translate(3.64703 4.24707)"/>
</clipPath>
</defs>
</svg>
