<svg width="27" height="27" viewBox="0 0 27 27" fill="none" xmlns="http://www.w3.org/2000/svg">
<rect y="0.600006" width="26.2588" height="26.2588" rx="7.29412" fill="black"/>
<g clip-path="url(#clip0_3_735)">
<path fill-rule="evenodd" clip-rule="evenodd" d="M15.8092 5.7415C17.275 4.2757 19.6515 4.2757 21.1173 5.7415C22.5831 7.20735 22.5831 9.58387 21.1173 11.0497C19.7478 12.4192 18.9562 13.0631 18.1811 13.6936C17.4375 14.2984 16.7091 14.891 15.5 16.1C14.1305 17.4695 13.4866 18.2611 12.8561 19.0363C12.2512 19.7798 11.6587 20.5083 10.4497 21.7173C8.98389 23.1831 6.60732 23.1831 5.14152 21.7173C3.67573 20.2515 3.67573 17.8749 5.14152 16.4091C6.51108 15.0396 7.30265 14.3957 8.07778 13.7652C8.82136 13.1604 9.54981 12.5678 10.7588 11.3588C12.1284 9.98927 12.7723 9.19769 13.4028 8.42256C14.0076 7.67898 14.6001 6.95053 15.8092 5.7415ZM13.3034 11.7002C13.0485 11.4452 13.0485 11.0319 13.3034 10.777C13.5584 10.5221 13.9717 10.5221 14.2266 10.777C14.4648 11.0152 14.5768 11.1528 14.6864 11.2876C14.7916 11.417 14.8946 11.5437 15.1049 11.7539C15.3431 11.9921 15.4808 12.1041 15.6156 12.2137C15.7449 12.3189 15.8716 12.422 16.0818 12.6322C16.3368 12.8872 16.3368 13.3005 16.0818 13.5554C15.8269 13.8103 15.4136 13.8103 15.1587 13.5554C14.9205 13.3172 14.8085 13.1796 14.6989 13.0447C14.5937 12.9154 14.4906 12.7887 14.2804 12.5785C14.0422 12.3403 13.9045 12.2283 13.7697 12.1187C13.6404 12.0135 13.5137 11.9104 13.3034 11.7002ZM10.1426 14.8609C9.88773 14.606 9.88773 14.1927 10.1426 13.9378C10.3976 13.6829 10.8109 13.6829 11.0658 13.9378C11.304 14.176 11.416 14.3136 11.5256 14.4484C11.6308 14.5778 11.7339 14.7044 11.9441 14.9147C12.1823 15.1529 12.32 15.2649 12.4548 15.3745C12.5841 15.4797 12.7108 15.5828 12.9211 15.793C13.176 16.0479 13.176 16.4613 12.9211 16.7162C12.6661 16.9711 12.2528 16.9711 11.9979 16.7162C11.7597 16.478 11.6477 16.3403 11.5381 16.2055C11.4329 16.0762 11.3298 15.9495 11.1196 15.7393C10.8814 15.5011 10.7437 15.3891 10.6089 15.2794C10.4796 15.1743 10.3529 15.0712 10.1426 14.8609Z" fill="url(#paint0_linear_3_735)"/>
</g>
<defs>
<linearGradient id="paint0_linear_3_735" x1="13.1294" y1="4.64215" x2="13.1294" y2="22.8167" gradientUnits="userSpaceOnUse">
<stop stop-color="#FFFAF6"/>
<stop offset="1" stop-color="#FFE5D3"/>
</linearGradient>
<clipPath id="clip0_3_735">
<rect width="18.9647" height="18.9647" fill="white" transform="translate(3.64703 4.24707)"/>
</clipPath>
</defs>
</svg>
