<svg width="24" height="24" viewBox="0 0 24 24" fill="none" xmlns="http://www.w3.org/2000/svg">
<path d="M12.04 3.50023C12.63 3.50023 19.58 3.52023 21.38 4.00023C21.891 4.14106 22.3559 4.41388 22.728 4.79127C23.1001 5.16867 23.3664 5.63735 23.5 6.15023C24 8.05023 24 12.0002 24 12.0002V12.0402C24 12.4702 23.97 16.0702 23.5 17.8402C23.3679 18.355 23.1023 18.8257 22.7301 19.205C22.3579 19.5842 21.8922 19.8585 21.38 20.0002C19.62 20.4802 12.93 20.5002 12.08 20.5102H11.91C11.06 20.5102 4.37 20.4802 2.62 20.0102C2.10662 19.8677 1.64008 19.5919 1.26775 19.2107C0.895418 18.8296 0.63054 18.3568 0.5 17.8402C0.08 16.2302 0.01 13.1402 0 12.2402V11.7402C0.01 10.8402 0.08 7.75023 0.5 6.14023C0.635168 5.62919 0.902108 5.16258 1.27414 4.78704C1.64617 4.4115 2.11025 4.1402 2.62 4.00023C4.42 3.51023 11.37 3.49023 11.96 3.49023L12.04 3.50023ZM9.54 8.40023V15.5802L15.82 12.0002L9.54 8.41023V8.40023Z" fill="black"/>
</svg>
